<svg width="2127pt" height="1130pt" viewBox="0.00 0.00 2127.00 1130.20" xmlns="http://www.w3.org/2000/svg" xmlns:xlink="http://www.w3.org/1999/xlink">
<g id="graph0" class="graph" transform="scale(1 1) rotate(0) translate(4 1126.2)">
<title>LivInParisFrontend</title>
<polygon fill="white" stroke="none" points="-4,4 -4,-1126.2 2123,-1126.2 2123,4 -4,4"/>
<g id="clust1" class="cluster">
<title>cluster_auth</title>
<polygon fill="lightgrey" stroke="lightgrey" points="753,-903.8 753,-1114.2 1340,-1114.2 1340,-903.8 753,-903.8"/>
<text text-anchor="middle" x="1046.5" y="-1096.7" font-family="Times,serif" font-size="15.00">🔒 Authentication</text>
</g>
<g id="clust2" class="cluster">
<title>cluster_customer</title>
<path fill="none" stroke="steelblue" d="M20,-8C20,-8 595,-8 595,-8 601,-8 607,-14 607,-20 607,-20 607,-819 607,-819 607,-825 601,-831 595,-831 595,-831 20,-831 20,-831 14,-831 8,-825 8,-819 8,-819 8,-20 8,-20 8,-14 14,-8 20,-8"/>
<text text-anchor="middle" x="307.5" y="-813.5" font-family="Times,serif" font-size="15.00">👤 Customer View</text>
</g>
<g id="clust3" class="cluster">
<title>cluster_chef</title>
<path fill="none" stroke="seagreen" d="M627,-134.8C627,-134.8 1381,-134.8 1381,-134.8 1387,-134.8 1393,-140.8 1393,-146.8 1393,-146.8 1393,-819 1393,-819 1393,-825 1387,-831 1381,-831 1381,-831 627,-831 627,-831 621,-831 615,-825 615,-819 615,-819 615,-146.8 615,-146.8 615,-140.8 621,-134.8 627,-134.8"/>
<text text-anchor="middle" x="1004" y="-813.5" font-family="Times,serif" font-size="15.00">👨‍🍳 Chef View</text>
</g>
<g id="clust4" class="cluster">
<title>cluster_stats</title>
<path fill="none" stroke="mediumpurple" d="M1413,-515.2C1413,-515.2 2099,-515.2 2099,-515.2 2105,-515.2 2111,-521.2 2111,-527.2 2111,-527.2 2111,-819 2111,-819 2111,-825 2105,-831 2099,-831 2099,-831 1413,-831 1413,-831 1407,-831 1401,-825 1401,-819 1401,-819 1401,-527.2 1401,-527.2 1401,-521.2 1407,-515.2 1413,-515.2"/>
<text text-anchor="middle" x="1756" y="-813.5" font-family="Times,serif" font-size="15.00">📈 Statistics View</text>
</g>
<!-- Login -->
<g id="node1" class="node">
<title>Login</title>
<polygon fill="white" stroke="white" points="1053,-1080.2 999,-1080.2 999,-1044.2 1053,-1044.2 1053,-1080.2"/>
<text text-anchor="middle" x="1026" y="-1058" font-family="Arial" font-size="14.00">Login</text>
</g>
<!-- Register -->
<g id="node2" class="node">
<title>Register</title>
<polygon fill="white" stroke="white" points="1300.07,-1080.2 1231.93,-1080.2 1231.93,-1044.2 1300.07,-1044.2 1300.07,-1080.2"/>
<text text-anchor="middle" x="1266" y="-1058" font-family="Arial" font-size="14.00">Register</text>
</g>
<!-- Login&#45;&gt;Register -->
<g id="edge3" class="edge">
<title>Login-&gt;Register</title>
<path fill="none" stroke="black" d="M1053.19,-1056.78C1108.91,-1047.08 1164.63,-1046.11 1220.36,-1053.88"/>
<polygon fill="black" stroke="black" points="1219.6,-1057.31 1230,-1055.33 1220.63,-1050.39 1219.6,-1057.31"/>
<text text-anchor="middle" x="1069.77" y="-1041.39" font-family="Times,serif" font-size="14.00">Sign Up</text>
</g>
<!-- MainMenu -->
<g id="node3" class="node">
<title>MainMenu</title>
<ellipse fill="lightblue" stroke="white" cx="1102" cy="-932.6" rx="58.81" ry="18"/>
<text text-anchor="middle" x="1102" y="-928.4" font-family="Arial" font-size="14.00">Main Menu</text>
</g>
<!-- Login&#45;&gt;MainMenu -->
<g id="edge1" class="edge">
<title>Login-&gt;MainMenu</title>
<path fill="none" stroke="black" d="M1041.96,-1044.12C1050.95,-1033.92 1061.95,-1020.42 1070,-1007.2 1078.75,-992.83 1086.36,-975.65 1091.97,-961.5"/>
<polygon fill="black" stroke="black" points="1095.17,-962.92 1095.47,-952.33 1088.63,-960.42 1095.17,-962.92"/>
<text text-anchor="middle" x="1100.08" y="-994.6" font-family="Times,serif" font-size="14.00">success</text>
<polyline fill="none" stroke="black" points="1121.07,-990.4 1079.09,-990.4 1079.86,-989.05"/>
</g>
<!-- ErrorPage -->
<g id="node4" class="node">
<title>ErrorPage</title>
<polygon fill="none" stroke="white" stroke-dasharray="1,5" points="1306.57,-953.4 1203.43,-953.4 1203.43,-911.8 1306.57,-911.8 1306.57,-953.4"/>
<text text-anchor="middle" x="1255" y="-936.8" font-family="Arial" font-size="14.00">Error</text>
<text text-anchor="middle" x="1255" y="-920" font-family="Arial" font-size="14.00">(invalid creds)</text>
</g>
<!-- Login&#45;&gt;ErrorPage -->
<g id="edge2" class="edge">
<title>Login-&gt;ErrorPage</title>
<path fill="none" stroke="black" stroke-dasharray="1,5" d="M1053.38,-1046.42C1073.29,-1035.63 1100.87,-1020.61 1125,-1007.2 1153.29,-991.48 1184.9,-973.59 1209.86,-959.39"/>
<polygon fill="black" stroke="black" points="1211.5,-962.48 1218.46,-954.49 1208.04,-956.4 1211.5,-962.48"/>
<text text-anchor="middle" x="1164.11" y="-994.6" font-family="Times,serif" font-size="14.00">fail</text>
<polyline fill="none" stroke="black" points="1173.44,-990.4 1154.78,-990.4 1158.39,-988.52"/>
</g>
<!-- ForgotPassword -->
<g id="node5" class="node">
<title>ForgotPassword</title>
<polygon fill="none" stroke="white" stroke-dasharray="1,5" points="926.91,-950.6 805.09,-950.6 805.09,-914.6 926.91,-914.6 926.91,-950.6"/>
<text text-anchor="middle" x="866" y="-928.4" font-family="Arial" font-size="14.00">Forgot Password</text>
</g>
<!-- Login&#45;&gt;ForgotPassword -->
<g id="edge4" class="edge">
<title>Login-&gt;ForgotPassword</title>
<path fill="none" stroke="black" stroke-dasharray="5,2" d="M998.69,-1059.01C942.88,-1053.91 818.88,-1039.16 793.49,-1007.2 779.21,-989.22 797.35,-970.81 819.06,-956.9"/>
<polygon fill="black" stroke="black" points="820.76,-959.96 827.54,-951.82 817.17,-953.96 820.76,-959.96"/>
<text text-anchor="middle" x="840.75" y="-994.6" font-family="Times,serif" font-size="14.00">Forgot Password</text>
<polyline fill="none" stroke="black" points="888,-990.4 793.49,-990.4 828.32,-1028.03"/>
</g>
<!-- Register&#45;&gt;Login -->
<g id="edge8" class="edge">
<title>Register-&gt;Login</title>
<path fill="none" stroke="black" d="M1231.5,-1068.85C1175.78,-1077.78 1120.06,-1077.98 1064.33,-1069.45"/>
<polygon fill="black" stroke="black" points="1065.12,-1066.03 1054.68,-1067.87 1063.99,-1072.94 1065.12,-1066.03"/>
<text text-anchor="middle" x="1214.77" y="-1075.61" font-family="Times,serif" font-size="14.00">Sign In</text>
</g>
<!-- Register&#45;&gt;MainMenu -->
<g id="edge6" class="edge">
<title>Register-&gt;MainMenu</title>
<path fill="none" stroke="black" d="M1253.13,-1043.71C1241.28,-1028.39 1222.61,-1006.19 1203,-990.4 1185.02,-975.92 1162.87,-963.01 1143.89,-953.17"/>
<polygon fill="black" stroke="black" points="1145.58,-950.1 1135.08,-948.71 1142.42,-956.35 1145.58,-950.1"/>
<text text-anchor="middle" x="1242.12" y="-994.6" font-family="Times,serif" font-size="14.00">success</text>
<polyline fill="none" stroke="black" points="1263.11,-990.4 1221.12,-990.4 1227.29,-1013.25"/>
</g>
<!-- Register&#45;&gt;ErrorPage -->
<g id="edge7" class="edge">
<title>Register-&gt;ErrorPage</title>
<path fill="none" stroke="black" stroke-dasharray="1,5" d="M1273.87,-1043.73C1279.33,-1029.39 1284.96,-1008.57 1281,-990.4 1279.07,-981.56 1275.64,-972.45 1271.89,-964.18"/>
<polygon fill="black" stroke="black" points="1275.06,-962.71 1267.53,-955.25 1268.77,-965.78 1275.06,-962.71"/>
<text text-anchor="middle" x="1291.66" y="-994.6" font-family="Times,serif" font-size="14.00">fail</text>
<polyline fill="none" stroke="black" points="1300.98,-990.4 1282.33,-990.4 1282.22,-999.52"/>
</g>
<!-- MainMenu&#45;&gt;Login -->
<g id="edge12" class="edge">
<title>MainMenu-&gt;Login</title>
<path fill="none" stroke="black" stroke-dasharray="1,5" d="M1070.52,-948.04C1053.88,-957.51 1034.99,-971.64 1025.56,-990.4 1019.07,-1003.31 1018.63,-1019.29 1020.06,-1032.81"/>
<polygon fill="black" stroke="black" points="1016.55,-1033.02 1021.47,-1042.41 1023.48,-1032 1016.55,-1033.02"/>
<text text-anchor="middle" x="1045.78" y="-994.6" font-family="Times,serif" font-size="14.00">Logout</text>
<polyline fill="none" stroke="black" points="1066,-990.4 1025.56,-990.4 1025.52,-990.48"/>
</g>
<!-- CustomerView -->
<g id="node6" class="node">
<title>CustomerView</title>
<path fill="none" stroke="black" d="M488.51,-797C488.51,-797 405.49,-797 405.49,-797 399.49,-797 393.49,-791 393.49,-785 393.49,-785 393.49,-773 393.49,-773 393.49,-767 399.49,-761 405.49,-761 405.49,-761 488.51,-761 488.51,-761 494.51,-761 500.51,-767 500.51,-773 500.51,-773 500.51,-785 500.51,-785 500.51,-791 494.51,-797 488.51,-797"/>
<text text-anchor="middle" x="447" y="-774.8" font-family="Arial" font-size="14.00">CustomerView</text>
</g>
<!-- MainMenu&#45;&gt;CustomerView -->
<g id="edge9" class="edge">
<title>MainMenu-&gt;CustomerView</title>
<path fill="none" stroke="black" d="M1054.29,-921.79C1021.24,-915.45 976.14,-907.67 936,-903.8 768.72,-887.66 724.87,-913.79 558,-893.8 518.16,-889.03 498.44,-902.84 469.73,-874.8 452.25,-857.72 447.26,-829.73 446.23,-808.58"/>
<polygon fill="black" stroke="black" points="449.73,-808.8 446.04,-798.86 442.73,-808.93 449.73,-808.8"/>
<text text-anchor="middle" x="513.87" y="-862.2" font-family="Times,serif" font-size="14.00">Customer View</text>
<polyline fill="none" stroke="black" points="558,-858 469.73,-858 509.61,-893.02"/>
</g>
<!-- ChefView -->
<g id="node7" class="node">
<title>ChefView</title>
<path fill="none" stroke="black" d="M1183.96,-797C1183.96,-797 1132.04,-797 1132.04,-797 1126.04,-797 1120.04,-791 1120.04,-785 1120.04,-785 1120.04,-773 1120.04,-773 1120.04,-767 1126.04,-761 1132.04,-761 1132.04,-761 1183.96,-761 1183.96,-761 1189.96,-761 1195.96,-767 1195.96,-773 1195.96,-773 1195.96,-785 1195.96,-785 1195.96,-791 1189.96,-797 1183.96,-797"/>
<text text-anchor="middle" x="1158" y="-774.8" font-family="Arial" font-size="14.00">ChefView</text>
</g>
<!-- MainMenu&#45;&gt;ChefView -->
<g id="edge10" class="edge">
<title>MainMenu-&gt;ChefView</title>
<path fill="none" stroke="black" d="M1108.42,-914.21C1118.04,-888.16 1136.29,-838.78 1147.76,-807.72"/>
<polygon fill="black" stroke="black" points="1150.94,-809.2 1151.13,-798.61 1144.38,-806.78 1150.94,-809.2"/>
<text text-anchor="middle" x="1159.59" y="-862.2" font-family="Times,serif" font-size="14.00">Chef View</text>
<polyline fill="none" stroke="black" points="1190.1,-858 1129.07,-858 1130.1,-855.52"/>
</g>
<!-- StatsView -->
<g id="node8" class="node">
<title>StatsView</title>
<path fill="none" stroke="black" d="M1564.12,-797C1564.12,-797 1509.88,-797 1509.88,-797 1503.88,-797 1497.88,-791 1497.88,-785 1497.88,-785 1497.88,-773 1497.88,-773 1497.88,-767 1503.88,-761 1509.88,-761 1509.88,-761 1564.12,-761 1564.12,-761 1570.12,-761 1576.12,-767 1576.12,-773 1576.12,-773 1576.12,-785 1576.12,-785 1576.12,-791 1570.12,-797 1564.12,-797"/>
<text text-anchor="middle" x="1537" y="-774.8" font-family="Arial" font-size="14.00">StatsView</text>
</g>
<!-- MainMenu&#45;&gt;StatsView -->
<g id="edge11" class="edge">
<title>MainMenu-&gt;StatsView</title>
<path fill="none" stroke="black" d="M1140.75,-918.67C1197.22,-899.76 1305.4,-863.3 1397,-831 1426.91,-820.45 1460.28,-808.31 1486.94,-798.52"/>
<polygon fill="black" stroke="black" points="1487.95,-801.88 1496.13,-795.14 1485.54,-795.31 1487.95,-801.88"/>
<text text-anchor="middle" x="1343.7" y="-862.2" font-family="Times,serif" font-size="14.00">Statistics</text>
<polyline fill="none" stroke="black" points="1368.98,-858 1318.42,-858 1338.58,-851.4"/>
</g>
<!-- ForgotPassword&#45;&gt;Login -->
<g id="edge5" class="edge">
<title>ForgotPassword-&gt;Login</title>
<path fill="none" stroke="black" stroke-dasharray="5,2" d="M880.1,-950.95C893.46,-966.74 914.59,-990.12 935.9,-1007.2 952.17,-1020.23 971.86,-1032.39 988.69,-1041.86"/>
<polygon fill="black" stroke="black" points="986.96,-1044.9 997.41,-1046.66 990.34,-1038.77 986.96,-1044.9"/>
<text text-anchor="middle" x="975.95" y="-994.6" font-family="Times,serif" font-size="14.00">Back to Login</text>
<polyline fill="none" stroke="black" points="1016,-990.4 935.9,-990.4 959.54,-1024.21"/>
</g>
<!-- CustomerDashboard -->
<g id="node9" class="node">
<title>CustomerDashboard</title>
<ellipse fill="lightsteelblue" stroke="black" cx="434" cy="-668" rx="102.82" ry="18"/>
<text text-anchor="middle" x="434" y="-663.8" font-family="Arial" font-size="14.00">Customer Dashboard</text>
</g>
<!-- CustomerView&#45;&gt;CustomerDashboard -->
<g id="edge13" class="edge">
<title>CustomerView-&gt;CustomerDashboard</title>
<path fill="none" stroke="black" d="M444.97,-760.97C442.95,-744.03 439.81,-717.73 437.41,-697.59"/>
<polygon fill="black" stroke="black" points="440.9,-697.29 436.24,-687.77 433.95,-698.12 440.9,-697.29"/>
</g>
<!-- ChefDashboard -->
<g id="node19" class="node">
<title>ChefDashboard</title>
<ellipse fill="lightgreen" stroke="black" cx="1097" cy="-668" rx="81.36" ry="18"/>
<text text-anchor="middle" x="1097" y="-663.8" font-family="Arial" font-size="14.00">Chef Dashboard</text>
</g>
<!-- ChefView&#45;&gt;ChefDashboard -->
<g id="edge35" class="edge">
<title>ChefView-&gt;ChefDashboard</title>
<path fill="none" stroke="black" d="M1148.47,-760.97C1138.77,-743.63 1123.58,-716.49 1112.21,-696.18"/>
<polygon fill="black" stroke="black" points="1115.34,-694.61 1107.4,-687.59 1109.23,-698.03 1115.34,-694.61"/>
</g>
<!-- StatsDashboard -->
<g id="node31" class="node">
<title>StatsDashboard</title>
<ellipse fill="thistle" stroke="black" cx="1659" cy="-668" rx="99.6" ry="18"/>
<text text-anchor="middle" x="1659" y="-663.8" font-family="Arial" font-size="14.00">Statistics Dashboard</text>
</g>
<!-- StatsView&#45;&gt;StatsDashboard -->
<g id="edge55" class="edge">
<title>StatsView-&gt;StatsDashboard</title>
<path fill="none" stroke="black" d="M1549.12,-760.71C1560.88,-744.73 1579.88,-720.97 1600,-704 1605.38,-699.47 1611.41,-695.16 1617.52,-691.22"/>
<polygon fill="black" stroke="black" points="1619.11,-694.35 1625.8,-686.14 1615.44,-688.39 1619.11,-694.35"/>
</g>
<!-- CustomerDashboard&#45;&gt;MainMenu -->
<g id="edge34" class="edge">
<title>CustomerDashboard-&gt;MainMenu</title>
<path fill="none" stroke="black" stroke-dasharray="1,5" d="M526.05,-676.28C551.36,-683.68 572,-697.53 572,-723 572,-867.4 572,-867.4 572,-867.4 572,-908.05 895.71,-898.42 936,-903.8 971.08,-908.49 1010.13,-914.96 1041.53,-920.48"/>
<polygon fill="black" stroke="black" points="1040.79,-923.91 1051.25,-922.21 1042.01,-917.01 1040.79,-923.91"/>
<text text-anchor="middle" x="589.11" y="-774.8" font-family="Times,serif" font-size="14.00">Home</text>
<polyline fill="none" stroke="black" points="606.21,-770.6 572,-770.6 572,-778.84"/>
</g>
<!-- BrowseDishes -->
<g id="node10" class="node">
<title>BrowseDishes</title>
<polygon fill="white" stroke="black" points="128.68,-559.2 19.32,-559.2 19.32,-523.2 128.68,-523.2 128.68,-559.2"/>
<text text-anchor="middle" x="74" y="-537" font-family="Arial" font-size="14.00">Browse Dishes</text>
</g>
<!-- CustomerDashboard&#45;&gt;BrowseDishes -->
<g id="edge14" class="edge">
<title>CustomerDashboard-&gt;BrowseDishes</title>
<path fill="none" stroke="black" d="M360.79,-655C314.86,-646.21 254.92,-632.41 204.07,-613 170.99,-600.38 135.86,-580.84 110.46,-565.49"/>
<polygon fill="black" stroke="black" points="112.53,-562.66 102.17,-560.41 108.87,-568.62 112.53,-562.66"/>
<text text-anchor="middle" x="243.53" y="-600.4" font-family="Times,serif" font-size="14.00">Browse Menu</text>
<polyline fill="none" stroke="black" points="283,-596.2 204.07,-596.2 237.24,-624.54"/>
</g>
<!-- MyOrders -->
<g id="node15" class="node">
<title>MyOrders</title>
<polygon fill="white" stroke="black" points="386.67,-559.2 305.33,-559.2 305.33,-523.2 386.67,-523.2 386.67,-559.2"/>
<text text-anchor="middle" x="346" y="-537" font-family="Arial" font-size="14.00">My Orders</text>
</g>
<!-- CustomerDashboard&#45;&gt;MyOrders -->
<g id="edge15" class="edge">
<title>CustomerDashboard-&gt;MyOrders</title>
<path fill="none" stroke="black" d="M357.02,-655.82C331.77,-648.09 306.31,-635.04 291.08,-613 280.11,-597.13 292.66,-580.02 308.52,-566.59"/>
<polygon fill="black" stroke="black" points="310.62,-569.39 316.34,-560.48 306.31,-563.87 310.62,-569.39"/>
<text text-anchor="middle" x="327.04" y="-600.4" font-family="Times,serif" font-size="14.00">View Orders</text>
<polyline fill="none" stroke="black" points="363,-596.2 291.08,-596.2 305.65,-629.14"/>
</g>
<!-- Profile_C -->
<g id="node17" class="node">
<title>Profile_C</title>
<polygon fill="white" stroke="black" points="549.12,-559.2 470.88,-559.2 470.88,-523.2 549.12,-523.2 549.12,-559.2"/>
<text text-anchor="middle" x="510" y="-537" font-family="Arial" font-size="14.00">My Profile</text>
</g>
<!-- CustomerDashboard&#45;&gt;Profile_C -->
<g id="edge16" class="edge">
<title>CustomerDashboard-&gt;Profile_C</title>
<path fill="none" stroke="black" d="M444.57,-649.65C457.27,-628.78 478.74,-593.54 493.6,-569.13"/>
<polygon fill="black" stroke="black" points="496.52,-571.06 498.74,-560.7 490.54,-567.42 496.52,-571.06"/>
<text text-anchor="middle" x="496.11" y="-600.4" font-family="Times,serif" font-size="14.00">Profile</text>
<polyline fill="none" stroke="black" points="515.16,-596.2 477.05,-596.2 478.61,-593.74"/>
</g>
<!-- BrowseDishes&#45;&gt;BrowseDishes -->
<g id="edge20" class="edge">
<title>BrowseDishes-&gt;BrowseDishes</title>
<path fill="none" stroke="black" stroke-dasharray="5,2" d="M129.15,-547.69C139.44,-546.89 146.68,-544.73 146.68,-541.2 146.68,-539.16 144.26,-537.58 140.23,-536.45"/>
<polygon fill="black" stroke="black" points="141.06,-533.04 130.64,-534.94 139.98,-539.95 141.06,-533.04"/>
<text text-anchor="middle" x="179.73" y="-537" font-family="Times,serif" font-size="14.00">Add to Cart</text>
<polyline fill="none" stroke="black" points="212.79,-532.8 146.68,-532.8 146.68,-541.1"/>
</g>
<!-- DishDetail -->
<g id="node11" class="node">
<title>DishDetail</title>
<polygon fill="white" stroke="black" points="338.84,-432.4 255.16,-432.4 255.16,-396.4 338.84,-396.4 338.84,-432.4"/>
<text text-anchor="middle" x="297" y="-410.2" font-family="Arial" font-size="14.00">Dish Detail</text>
</g>
<!-- BrowseDishes&#45;&gt;DishDetail -->
<g id="edge24" class="edge">
<title>BrowseDishes-&gt;DishDetail</title>
<path fill="none" stroke="black" d="M119.47,-522.82C143.14,-513.13 172.24,-500.21 197,-486.2 221.34,-472.43 247.06,-454.13 266.32,-439.58"/>
<polygon fill="black" stroke="black" points="268.2,-442.55 274.02,-433.7 263.95,-436.99 268.2,-442.55"/>
<text text-anchor="middle" x="256.1" y="-473.6" font-family="Times,serif" font-size="14.00">Select Dish</text>
<polyline fill="none" stroke="black" points="288.18,-469.4 224.03,-469.4 241.8,-457.47"/>
</g>
<!-- Cart -->
<g id="node12" class="node">
<title>Cart</title>
<polygon fill="white" stroke="black" points="184.75,-305.6 79.25,-305.6 79.25,-269.6 184.75,-269.6 184.75,-305.6"/>
<text text-anchor="middle" x="132" y="-283.4" font-family="Arial" font-size="14.00">Shopping Cart</text>
</g>
<!-- BrowseDishes&#45;&gt;Cart -->
<g id="edge21" class="edge">
<title>BrowseDishes-&gt;Cart</title>
<path fill="none" stroke="black" d="M69,-522.94C65.64,-507.57 63.5,-485.15 74,-469.4 83.6,-455 92.57,-458.26 108,-450.4 125.01,-441.74 136.71,-448.48 147,-432.4 169.53,-397.19 156.4,-346.93 144.47,-316.1"/>
<polygon fill="black" stroke="black" points="147.8,-315.01 140.77,-307.09 141.33,-317.67 147.8,-315.01"/>
<text text-anchor="middle" x="187.7" y="-410.2" font-family="Times,serif" font-size="14.00">View Cart</text>
<polyline fill="none" stroke="black" points="216.67,-406 158.74,-406 156.95,-407.96"/>
</g>
<!-- DishDetail&#45;&gt;BrowseDishes -->
<g id="edge17" class="edge">
<title>DishDetail-&gt;BrowseDishes</title>
<path fill="none" stroke="black" stroke-dasharray="1,5" d="M254.88,-428.47C250.21,-429.83 245.51,-431.17 241,-432.4 173.71,-450.76 136.91,-419.2 88.49,-469.4 77.81,-480.48 74.04,-497.19 73,-511.6"/>
<polygon fill="black" stroke="black" points="69.51,-511.38 72.73,-521.47 76.51,-511.57 69.51,-511.38"/>
<text text-anchor="middle" x="142.75" y="-473.6" font-family="Times,serif" font-size="14.00">Continue Shopping</text>
<polyline fill="none" stroke="black" points="197,-469.4 88.49,-469.4 134.42,-441.62"/>
</g>
<!-- DishDetail&#45;&gt;Cart -->
<g id="edge25" class="edge">
<title>DishDetail-&gt;Cart</title>
<path fill="none" stroke="black" d="M276.14,-396.01C253.76,-377.54 216.96,-347.73 184,-323.6 178.95,-319.9 173.55,-316.1 168.2,-312.43"/>
<polygon fill="black" stroke="black" points="170.23,-309.57 159.99,-306.86 166.3,-315.37 170.23,-309.57"/>
<text text-anchor="middle" x="258.49" y="-346.8" font-family="Times,serif" font-size="14.00">View Cart</text>
<polyline fill="none" stroke="black" points="287.46,-342.6 229.53,-342.6 243.67,-369.61"/>
</g>
<!-- Checkout -->
<g id="node13" class="node">
<title>Checkout</title>
<polygon fill="white" stroke="black" points="420.57,-178.8 345.43,-178.8 345.43,-142.8 420.57,-142.8 420.57,-178.8"/>
<text text-anchor="middle" x="383" y="-156.6" font-family="Arial" font-size="14.00">Checkout</text>
</g>
<!-- DishDetail&#45;&gt;Checkout -->
<g id="edge23" class="edge">
<title>DishDetail-&gt;Checkout</title>
<path fill="none" stroke="black" d="M335.22,-395.96C360.49,-383.16 389,-365.68 389,-352 389,-352 389,-352 389,-223.2 389,-212.5 388.09,-200.8 386.97,-190.51"/>
<polygon fill="black" stroke="black" points="390.46,-190.24 385.79,-180.73 383.51,-191.07 390.46,-190.24"/>
<text text-anchor="middle" x="416.03" y="-283.4" font-family="Times,serif" font-size="14.00">Buy Now</text>
<polyline fill="none" stroke="black" points="443.06,-279.2 389,-279.2 389,-335.9"/>
</g>
<!-- Cart&#45;&gt;BrowseDishes -->
<g id="edge22" class="edge">
<title>Cart-&gt;BrowseDishes</title>
<path fill="none" stroke="black" stroke-dasharray="1,5" d="M108.16,-306.1C84.33,-325.22 49.19,-358.25 34.49,-396.4 19.18,-436.17 39.89,-484.24 56.63,-513.5"/>
<polygon fill="black" stroke="black" points="53.41,-514.94 61.54,-521.72 59.42,-511.34 53.41,-514.94"/>
<text text-anchor="middle" x="88.75" y="-410.2" font-family="Times,serif" font-size="14.00">Continue Shopping</text>
<polyline fill="none" stroke="black" points="143,-406 34.49,-406 34.47,-396.46"/>
</g>
<!-- Cart&#45;&gt;Cart -->
<g id="edge27" class="edge">
<title>Cart-&gt;Cart</title>
<path fill="none" stroke="black" stroke-dasharray="5,2" d="M185.07,-294.14C195.41,-293.38 202.75,-291.2 202.75,-287.6 202.75,-285.52 200.3,-283.91 196.23,-282.78"/>
<polygon fill="black" stroke="black" points="196.98,-279.36 186.57,-281.29 195.92,-286.27 196.98,-279.36"/>
<text text-anchor="middle" x="277.98" y="-283.4" font-family="Times,serif" font-size="14.00">Update Quantity / Remove</text>
<polyline fill="none" stroke="black" points="353.22,-279.2 202.75,-279.2 202.75,-287.55"/>
</g>
<!-- Cart&#45;&gt;Checkout -->
<g id="edge26" class="edge">
<title>Cart-&gt;Checkout</title>
<path fill="none" stroke="black" d="M164.34,-269.16C191.63,-254.57 231.83,-233.38 267.37,-215.8 289.37,-204.92 313.98,-193.34 334.83,-183.71"/>
<polygon fill="black" stroke="black" points="336.04,-187 343.66,-179.64 333.12,-180.64 336.04,-187"/>
<text text-anchor="middle" x="325.68" y="-220" font-family="Times,serif" font-size="14.00">Proceed to Checkout</text>
<polyline fill="none" stroke="black" points="384,-215.8 267.37,-215.8 311.72,-194.47"/>
</g>
<!-- OrderConfirmation -->
<g id="node14" class="node">
<title>OrderConfirmation</title>
<polygon fill="white" stroke="black" points="492.52,-52 357.48,-52 357.48,-16 492.52,-16 492.52,-52"/>
<text text-anchor="middle" x="425" y="-29.8" font-family="Arial" font-size="14.00">Order Confirmation</text>
</g>
<!-- Checkout&#45;&gt;OrderConfirmation -->
<g id="edge32" class="edge">
<title>Checkout-&gt;OrderConfirmation</title>
<path fill="none" stroke="black" d="M384.85,-142.55C386.75,-127.98 390.33,-106.72 396.53,-89 399.69,-80 404.14,-70.65 408.59,-62.32"/>
<polygon fill="black" stroke="black" points="411.57,-64.16 413.39,-53.72 405.46,-60.74 411.57,-64.16"/>
<text text-anchor="middle" x="429.77" y="-93.2" font-family="Times,serif" font-size="14.00">Place Order</text>
<polyline fill="none" stroke="black" points="463,-89 396.53,-89 397.94,-85.19"/>
</g>
<!-- OrderConfirmation&#45;&gt;CustomerDashboard -->
<g id="edge33" class="edge">
<title>OrderConfirmation-&gt;CustomerDashboard</title>
<path fill="none" stroke="black" stroke-dasharray="1,5" d="M445.74,-52.43C456.74,-63.67 468,-79.35 468,-96.4 468,-378.4 468,-378.4 468,-378.4 468,-402.81 464.25,-408.81 458,-432.4 449.34,-465.06 433,-470.41 433,-504.2 433,-605.6 433,-605.6 433,-605.6 433,-616.25 433.15,-627.94 433.34,-638.23"/>
<polygon fill="black" stroke="black" points="429.83,-638.09 433.53,-648.02 436.83,-637.95 429.83,-638.09"/>
<text text-anchor="middle" x="483.16" y="-346.8" font-family="Times,serif" font-size="14.00">Done</text>
<polyline fill="none" stroke="black" points="498.32,-342.6 468,-342.6 468,-351.13"/>
</g>
<!-- MyOrders&#45;&gt;CustomerDashboard -->
<g id="edge18" class="edge">
<title>MyOrders-&gt;CustomerDashboard</title>
<path fill="none" stroke="black" stroke-dasharray="1,5" d="M358.13,-559.41C372.93,-580.39 398.09,-616.07 415.35,-640.55"/>
<polygon fill="black" stroke="black" points="412.27,-642.25 420.89,-648.41 417.99,-638.22 412.27,-642.25"/>
<text text-anchor="middle" x="410.23" y="-600.4" font-family="Times,serif" font-size="14.00">Back</text>
<polyline fill="none" stroke="black" points="424.62,-596.2 395.85,-596.2 396.69,-614.09"/>
</g>
<!-- OrderDetail_C -->
<g id="node16" class="node">
<title>OrderDetail_C</title>
<polygon fill="white" stroke="black" points="448.73,-432.4 357.27,-432.4 357.27,-396.4 448.73,-396.4 448.73,-432.4"/>
<text text-anchor="middle" x="403" y="-410.2" font-family="Arial" font-size="14.00">Order Detail</text>
</g>
<!-- MyOrders&#45;&gt;OrderDetail_C -->
<g id="edge28" class="edge">
<title>MyOrders-&gt;OrderDetail_C</title>
<path fill="none" stroke="black" d="M336.9,-522.79C330.46,-507.93 324.33,-486.34 332.68,-469.4 338.57,-457.44 348.53,-447.39 359.13,-439.33"/>
<polygon fill="black" stroke="black" points="361.09,-442.23 367.27,-433.63 357.08,-436.49 361.09,-442.23"/>
<text text-anchor="middle" x="347.84" y="-473.6" font-family="Times,serif" font-size="14.00">View</text>
<polyline fill="none" stroke="black" points="363,-469.4 332.68,-469.4 332.75,-469.26"/>
</g>
<!-- OrderDetail_C&#45;&gt;MyOrders -->
<g id="edge29" class="edge">
<title>OrderDetail_C-&gt;MyOrders</title>
<path fill="none" stroke="black" stroke-dasharray="1,5" d="M395.14,-432.61C385.73,-453.21 369.84,-488.01 358.68,-512.44"/>
<polygon fill="black" stroke="black" points="355.53,-510.92 354.55,-521.47 361.89,-513.83 355.53,-510.92"/>
<text text-anchor="middle" x="392.67" y="-473.6" font-family="Times,serif" font-size="14.00">Back</text>
<polyline fill="none" stroke="black" points="407.06,-469.4 378.29,-469.4 377.72,-470.76"/>
</g>
<!-- Profile_C&#45;&gt;CustomerDashboard -->
<g id="edge19" class="edge">
<title>Profile_C-&gt;CustomerDashboard</title>
<path fill="none" stroke="black" stroke-dasharray="1,5" d="M517.74,-559.59C523.2,-574.63 528.07,-596.49 519,-613 511.41,-626.81 498.63,-637.59 485.26,-645.76"/>
<polygon fill="black" stroke="black" points="483.8,-642.56 476.8,-650.51 487.23,-648.67 483.8,-642.56"/>
<text text-anchor="middle" x="538.14" y="-600.4" font-family="Times,serif" font-size="14.00">Back</text>
<polyline fill="none" stroke="black" points="552.52,-596.2 523.76,-596.2 523.09,-601.53"/>
</g>
<!-- EditProfile_C -->
<g id="node18" class="node">
<title>EditProfile_C</title>
<polygon fill="white" stroke="black" points="570.85,-432.4 487.15,-432.4 487.15,-396.4 570.85,-396.4 570.85,-432.4"/>
<text text-anchor="middle" x="529" y="-410.2" font-family="Arial" font-size="14.00">Edit Profile</text>
</g>
<!-- Profile_C&#45;&gt;EditProfile_C -->
<g id="edge30" class="edge">
<title>Profile_C-&gt;EditProfile_C</title>
<path fill="none" stroke="black" d="M496.35,-522.77C486.87,-508.45 477.03,-487.64 483.67,-469.4 487.42,-459.1 494.1,-449.39 501.2,-441.12"/>
<polygon fill="black" stroke="black" points="503.68,-443.59 507.91,-433.87 498.55,-438.83 503.68,-443.59"/>
<text text-anchor="middle" x="495.33" y="-473.6" font-family="Times,serif" font-size="14.00">Edit</text>
<polyline fill="none" stroke="black" points="507,-469.4 483.67,-469.4 483.68,-469.37"/>
</g>
<!-- EditProfile_C&#45;&gt;Profile_C -->
<g id="edge31" class="edge">
<title>EditProfile_C-&gt;Profile_C</title>
<path fill="none" stroke="black" stroke-dasharray="1,5" d="M526.38,-432.61C523.27,-453.03 518.04,-487.39 514.33,-511.78"/>
<polygon fill="black" stroke="black" points="510.91,-510.94 512.87,-521.35 517.83,-511.99 510.91,-510.94"/>
<text text-anchor="middle" x="555.75" y="-473.6" font-family="Times,serif" font-size="14.00">Save/Cancel</text>
<polyline fill="none" stroke="black" points="590.74,-469.4 520.76,-469.4 520.28,-472.7"/>
</g>
<!-- ChefDashboard&#45;&gt;MainMenu -->
<g id="edge54" class="edge">
<title>ChefDashboard-&gt;MainMenu</title>
<path fill="none" stroke="black" stroke-dasharray="1,5" d="M1082.5,-685.78C1075.25,-695.88 1068,-709.38 1068,-723 1068,-867.4 1068,-867.4 1068,-867.4 1068,-880.92 1073.96,-894.37 1080.89,-905.44"/>
<polygon fill="black" stroke="black" points="1077.97,-907.38 1086.53,-913.63 1083.74,-903.41 1077.97,-907.38"/>
<text text-anchor="middle" x="1085.11" y="-774.8" font-family="Times,serif" font-size="14.00">Home</text>
<polyline fill="none" stroke="black" points="1102.21,-770.6 1068,-770.6 1068,-778.84"/>
</g>
<!-- ManageMenu -->
<g id="node20" class="node">
<title>ManageMenu</title>
<polygon fill="white" stroke="black" points="858.75,-559.2 753.25,-559.2 753.25,-523.2 858.75,-523.2 858.75,-559.2"/>
<text text-anchor="middle" x="806" y="-537" font-family="Arial" font-size="14.00">Manage Menu</text>
</g>
<!-- ChefDashboard&#45;&gt;ManageMenu -->
<g id="edge36" class="edge">
<title>ChefDashboard-&gt;ManageMenu</title>
<path fill="none" stroke="black" d="M1051.97,-652.64C1021.5,-642.52 980.56,-628.12 945.39,-613 911.78,-598.55 874.92,-579.69 847.56,-565.07"/>
<polygon fill="black" stroke="black" points="849.36,-562.06 838.89,-560.41 846.04,-568.23 849.36,-562.06"/>
<text text-anchor="middle" x="990.69" y="-600.4" font-family="Times,serif" font-size="14.00">Menu Proposals</text>
<polyline fill="none" stroke="black" points="1036,-596.2 945.39,-596.2 981.74,-627.69"/>
</g>
<!-- IncomingOrders -->
<g id="node23" class="node">
<title>IncomingOrders</title>
<polygon fill="white" stroke="black" points="1055.74,-559.2 936.26,-559.2 936.26,-523.2 1055.74,-523.2 1055.74,-559.2"/>
<text text-anchor="middle" x="996" y="-537" font-family="Arial" font-size="14.00">Incoming Orders</text>
</g>
<!-- ChefDashboard&#45;&gt;IncomingOrders -->
<g id="edge41" class="edge">
<title>ChefDashboard-&gt;IncomingOrders</title>
<path fill="none" stroke="black" d="M1083.17,-649.91C1066.11,-628.84 1036.95,-592.8 1017.1,-568.27"/>
<polygon fill="black" stroke="black" points="1019.95,-566.23 1010.94,-560.66 1014.51,-570.64 1019.95,-566.23"/>
<text text-anchor="middle" x="1072.26" y="-600.4" font-family="Times,serif" font-size="14.00">Orders</text>
<polyline fill="none" stroke="black" points="1091.31,-596.2 1053.22,-596.2 1056.73,-617.24"/>
</g>
<!-- MyDeliveries -->
<g id="node27" class="node">
<title>MyDeliveries</title>
<polygon fill="white" stroke="black" points="1175.01,-559.2 1074.99,-559.2 1074.99,-523.2 1175.01,-523.2 1175.01,-559.2"/>
<text text-anchor="middle" x="1125" y="-537" font-family="Arial" font-size="14.00">My Deliveries</text>
</g>
<!-- ChefDashboard&#45;&gt;MyDeliveries -->
<g id="edge47" class="edge">
<title>ChefDashboard-&gt;MyDeliveries</title>
<path fill="none" stroke="black" d="M1100.3,-649.79C1103.1,-635.42 1107.32,-614.43 1111.47,-596.2 1113.36,-587.87 1115.56,-578.86 1117.63,-570.63"/>
<polygon fill="black" stroke="black" points="1120.97,-571.68 1120.04,-561.13 1114.19,-569.96 1120.97,-571.68"/>
<text text-anchor="middle" x="1140.23" y="-600.4" font-family="Times,serif" font-size="14.00">Deliveries</text>
<polyline fill="none" stroke="black" points="1169,-596.2 1111.47,-596.2 1111.49,-596.1"/>
</g>
<!-- Profile_H -->
<g id="node29" class="node">
<title>Profile_H</title>
<polygon fill="white" stroke="black" points="1295.12,-559.2 1216.88,-559.2 1216.88,-523.2 1295.12,-523.2 1295.12,-559.2"/>
<text text-anchor="middle" x="1256" y="-537" font-family="Arial" font-size="14.00">My Profile</text>
</g>
<!-- ChefDashboard&#45;&gt;Profile_H -->
<g id="edge50" class="edge">
<title>ChefDashboard-&gt;Profile_H</title>
<path fill="none" stroke="black" d="M1154.64,-654.88C1179.31,-646.89 1206.41,-633.9 1224,-613 1234.49,-600.54 1242.2,-584.09 1247.42,-570.18"/>
<polygon fill="black" stroke="black" points="1250.59,-571.72 1250.58,-561.12 1243.98,-569.41 1250.59,-571.72"/>
<text text-anchor="middle" x="1254.33" y="-600.4" font-family="Times,serif" font-size="14.00">Profile</text>
<polyline fill="none" stroke="black" points="1273.39,-596.2 1235.28,-596.2 1236.38,-594.56"/>
</g>
<!-- CreateProposal -->
<g id="node21" class="node">
<title>CreateProposal</title>
<polygon fill="white" stroke="black" points="900.58,-432.4 783.42,-432.4 783.42,-396.4 900.58,-396.4 900.58,-432.4"/>
<text text-anchor="middle" x="842" y="-410.2" font-family="Arial" font-size="14.00">Create Proposal</text>
</g>
<!-- ManageMenu&#45;&gt;CreateProposal -->
<g id="edge37" class="edge">
<title>ManageMenu-&gt;CreateProposal</title>
<path fill="none" stroke="black" d="M843.02,-522.76C857.3,-513.96 872.07,-501.8 880,-486.2 887.6,-471.25 879.68,-454.72 869.13,-441.4"/>
<polygon fill="black" stroke="black" points="871.79,-439.11 862.57,-433.88 866.52,-443.72 871.79,-439.11"/>
<text text-anchor="middle" x="896.23" y="-473.6" font-family="Times,serif" font-size="14.00">New</text>
<polyline fill="none" stroke="black" points="909.45,-469.4 883.01,-469.4 882.86,-476.57"/>
</g>
<!-- EditProposal -->
<g id="node22" class="node">
<title>EditProposal</title>
<polygon fill="white" stroke="black" points="725.63,-432.4 626.37,-432.4 626.37,-396.4 725.63,-396.4 725.63,-432.4"/>
<text text-anchor="middle" x="676" y="-410.2" font-family="Arial" font-size="14.00">Edit Proposal</text>
</g>
<!-- ManageMenu&#45;&gt;EditProposal -->
<g id="edge38" class="edge">
<title>ManageMenu-&gt;EditProposal</title>
<path fill="none" stroke="black" d="M787.92,-522.85C765.61,-501.43 727.5,-464.84 702.03,-440.39"/>
<polygon fill="black" stroke="black" points="704.65,-438.05 695.01,-433.65 699.8,-443.1 704.65,-438.05"/>
<text text-anchor="middle" x="761.31" y="-473.6" font-family="Times,serif" font-size="14.00">Edit</text>
<polyline fill="none" stroke="black" points="772.97,-469.4 749.64,-469.4 751.59,-487.96"/>
</g>
<!-- CreateProposal&#45;&gt;ManageMenu -->
<g id="edge39" class="edge">
<title>CreateProposal-&gt;ManageMenu</title>
<path fill="none" stroke="black" stroke-dasharray="1,5" d="M826.77,-432.52C818.92,-442.52 810.14,-455.82 806.03,-469.4 801.94,-482.91 801.51,-498.55 802.28,-511.68"/>
<polygon fill="black" stroke="black" points="798.78,-511.75 803.13,-521.41 805.75,-511.14 798.78,-511.75"/>
<text text-anchor="middle" x="841.01" y="-473.6" font-family="Times,serif" font-size="14.00">Save/Cancel</text>
<polyline fill="none" stroke="black" points="876,-469.4 806.03,-469.4 806,-469.48"/>
</g>
<!-- EditProposal&#45;&gt;ManageMenu -->
<g id="edge40" class="edge">
<title>EditProposal-&gt;ManageMenu</title>
<path fill="none" stroke="black" stroke-dasharray="1,5" d="M664.21,-432.84C655.5,-448.12 646.91,-470.3 658.03,-486.2 677.01,-513.34 711.16,-526.89 741.87,-533.63"/>
<polygon fill="black" stroke="black" points="741.02,-537.03 751.51,-535.52 742.37,-530.16 741.02,-537.03"/>
<text text-anchor="middle" x="693.01" y="-473.6" font-family="Times,serif" font-size="14.00">Save/Cancel</text>
<polyline fill="none" stroke="black" points="728,-469.4 658.03,-469.4 671.89,-501.62"/>
</g>
<!-- OrderDetail_H -->
<g id="node24" class="node">
<title>OrderDetail_H</title>
<polygon fill="white" stroke="black" points="1076.73,-432.4 985.27,-432.4 985.27,-396.4 1076.73,-396.4 1076.73,-432.4"/>
<text text-anchor="middle" x="1031" y="-410.2" font-family="Arial" font-size="14.00">Order Detail</text>
</g>
<!-- IncomingOrders&#45;&gt;OrderDetail_H -->
<g id="edge42" class="edge">
<title>IncomingOrders-&gt;OrderDetail_H</title>
<path fill="none" stroke="black" d="M1008.54,-523.15C1015.31,-512.96 1023.06,-499.46 1027,-486.2 1031.03,-472.65 1032.25,-457.01 1032.37,-443.88"/>
<polygon fill="black" stroke="black" points="1035.87,-444.12 1032.24,-434.17 1028.87,-444.22 1035.87,-444.12"/>
<text text-anchor="middle" x="1045.57" y="-473.6" font-family="Times,serif" font-size="14.00">View</text>
<polyline fill="none" stroke="black" points="1060.74,-469.4 1030.41,-469.4 1029.65,-475.04"/>
</g>
<!-- OrderDetail_H&#45;&gt;IncomingOrders -->
<g id="edge46" class="edge">
<title>OrderDetail_H-&gt;IncomingOrders</title>
<path fill="none" stroke="black" stroke-dasharray="1,5" d="M1015.44,-432.47C1007.41,-442.45 998.44,-455.74 994.23,-469.4 990.08,-482.89 990,-498.53 991.19,-511.67"/>
<polygon fill="black" stroke="black" points="987.69,-511.89 992.37,-521.4 994.64,-511.05 987.69,-511.89"/>
<text text-anchor="middle" x="1008.62" y="-473.6" font-family="Times,serif" font-size="14.00">Back</text>
<polyline fill="none" stroke="black" points="1023,-469.4 994.23,-469.4 993.01,-473.9"/>
</g>
<!-- AcceptRejectOrder -->
<g id="node25" class="node">
<title>AcceptRejectOrder</title>
<polygon fill="white" stroke="black" points="1086.08,-305.6 975.92,-305.6 975.92,-269.6 1086.08,-269.6 1086.08,-305.6"/>
<text text-anchor="middle" x="1031" y="-283.4" font-family="Arial" font-size="14.00">Accept / Reject</text>
</g>
<!-- OrderDetail_H&#45;&gt;AcceptRejectOrder -->
<g id="edge43" class="edge">
<title>OrderDetail_H-&gt;AcceptRejectOrder</title>
<path fill="none" stroke="black" d="M1031,-396.05C1031,-375.65 1031,-341.5 1031,-317.18"/>
<polygon fill="black" stroke="black" points="1034.5,-317.32 1031,-307.32 1027.5,-317.32 1034.5,-317.32"/>
<text text-anchor="middle" x="1050.82" y="-346.8" font-family="Times,serif" font-size="14.00">Decide</text>
<polyline fill="none" stroke="black" points="1070.64,-342.6 1031,-342.6 1031,-350.77"/>
</g>
<!-- UpdateStatus -->
<g id="node26" class="node">
<title>UpdateStatus</title>
<polygon fill="white" stroke="black" points="1037.36,-178.8 932.64,-178.8 932.64,-142.8 1037.36,-142.8 1037.36,-178.8"/>
<text text-anchor="middle" x="985" y="-156.6" font-family="Arial" font-size="14.00">Update Status</text>
</g>
<!-- AcceptRejectOrder&#45;&gt;UpdateStatus -->
<g id="edge44" class="edge">
<title>AcceptRejectOrder-&gt;UpdateStatus</title>
<path fill="none" stroke="black" d="M1024.6,-269.25C1017.02,-248.66 1004.27,-214.08 995.29,-189.71"/>
<polygon fill="black" stroke="black" points="998.61,-188.6 991.87,-180.43 992.04,-191.02 998.61,-188.6"/>
<text text-anchor="middle" x="1034.78" y="-220" font-family="Times,serif" font-size="14.00">Confirm</text>
<polyline fill="none" stroke="black" points="1058.5,-215.8 1011.06,-215.8 1011.21,-232.9"/>
</g>
<!-- UpdateStatus&#45;&gt;IncomingOrders -->
<g id="edge45" class="edge">
<title>UpdateStatus-&gt;IncomingOrders</title>
<path fill="none" stroke="black" stroke-dasharray="1,5" d="M972.31,-179.12C964.9,-190.93 957,-207.27 957,-223.2 957,-478.8 957,-478.8 957,-478.8 957,-491.66 963.17,-504 970.6,-514.21"/>
<polygon fill="black" stroke="black" points="967.69,-516.17 976.69,-521.75 973.14,-511.77 967.69,-516.17"/>
<text text-anchor="middle" x="971.38" y="-346.8" font-family="Times,serif" font-size="14.00">Back</text>
<polyline fill="none" stroke="black" points="985.77,-342.6 957,-342.6 957,-446.85"/>
</g>
<!-- DeliveryDetail -->
<g id="node28" class="node">
<title>DeliveryDetail</title>
<polygon fill="white" stroke="black" points="1223.12,-432.4 1116.88,-432.4 1116.88,-396.4 1223.12,-396.4 1223.12,-432.4"/>
<text text-anchor="middle" x="1170" y="-410.2" font-family="Arial" font-size="14.00">Delivery Detail</text>
</g>
<!-- MyDeliveries&#45;&gt;DeliveryDetail -->
<g id="edge48" class="edge">
<title>MyDeliveries-&gt;DeliveryDetail</title>
<path fill="none" stroke="black" d="M1126.71,-522.88C1128.53,-508.27 1132.09,-486.99 1138.68,-469.4 1142.13,-460.16 1147.09,-450.67 1152.05,-442.27"/>
<polygon fill="black" stroke="black" points="1154.91,-444.29 1157.19,-433.94 1148.96,-440.61 1154.91,-444.29"/>
<text text-anchor="middle" x="1153.84" y="-473.6" font-family="Times,serif" font-size="14.00">View</text>
<polyline fill="none" stroke="black" points="1169,-469.4 1138.68,-469.4 1138.7,-469.35"/>
</g>
<!-- DeliveryDetail&#45;&gt;MyDeliveries -->
<g id="edge49" class="edge">
<title>DeliveryDetail-&gt;MyDeliveries</title>
<path fill="none" stroke="black" stroke-dasharray="1,5" d="M1172.87,-432.85C1174.56,-447.54 1175.3,-468.87 1169,-486.2 1165.24,-496.55 1158.58,-506.37 1151.57,-514.72"/>
<polygon fill="black" stroke="black" points="1149.06,-512.28 1144.96,-522.05 1154.26,-516.97 1149.06,-512.28"/>
<text text-anchor="middle" x="1187.35" y="-473.6" font-family="Times,serif" font-size="14.00">Back</text>
<polyline fill="none" stroke="black" points="1201.73,-469.4 1172.96,-469.4 1172.11,-474.8"/>
</g>
<!-- Profile_H&#45;&gt;ChefDashboard -->
<g id="edge53" class="edge">
<title>Profile_H-&gt;ChefDashboard</title>
<path fill="none" stroke="black" stroke-dasharray="1,5" d="M1235.09,-559.6C1217.58,-574.08 1191.86,-595.13 1169,-613 1155.95,-623.2 1141.37,-634.21 1128.75,-643.61"/>
<polygon fill="black" stroke="black" points="1126.71,-640.77 1120.77,-649.54 1130.88,-646.39 1126.71,-640.77"/>
<text text-anchor="middle" x="1203.47" y="-600.4" font-family="Times,serif" font-size="14.00">Back</text>
<polyline fill="none" stroke="black" points="1217.85,-596.2 1189.08,-596.2 1194.24,-592.96"/>
</g>
<!-- EditProfile_H -->
<g id="node30" class="node">
<title>EditProfile_H</title>
<polygon fill="white" stroke="black" points="1351.85,-432.4 1268.15,-432.4 1268.15,-396.4 1351.85,-396.4 1351.85,-432.4"/>
<text text-anchor="middle" x="1310" y="-410.2" font-family="Arial" font-size="14.00">Edit Profile</text>
</g>
<!-- Profile_H&#45;&gt;EditProfile_H -->
<g id="edge51" class="edge">
<title>Profile_H-&gt;EditProfile_H</title>
<path fill="none" stroke="black" d="M1257.16,-522.96C1258.65,-508.22 1262.03,-486.69 1269.67,-469.4 1274,-459.6 1280.39,-449.91 1286.81,-441.49"/>
<polygon fill="black" stroke="black" points="1289.48,-443.76 1293.02,-433.78 1284.03,-439.37 1289.48,-443.76"/>
<text text-anchor="middle" x="1281.33" y="-473.6" font-family="Times,serif" font-size="14.00">Edit</text>
<polyline fill="none" stroke="black" points="1293,-469.4 1269.67,-469.4 1269.69,-469.34"/>
</g>
<!-- EditProfile_H&#45;&gt;Profile_H -->
<g id="edge52" class="edge">
<title>EditProfile_H-&gt;Profile_H</title>
<path fill="none" stroke="black" stroke-dasharray="1,5" d="M1307.63,-432.85C1305.21,-447.54 1300.7,-468.87 1293,-486.2 1288.71,-495.86 1282.65,-505.63 1276.68,-514.15"/>
<polygon fill="black" stroke="black" points="1274.05,-511.81 1270.96,-521.95 1279.7,-515.95 1274.05,-511.81"/>
<text text-anchor="middle" x="1334.15" y="-473.6" font-family="Times,serif" font-size="14.00">Save/Cancel</text>
<polyline fill="none" stroke="black" points="1369.13,-469.4 1299.16,-469.4 1299.72,-467.79"/>
</g>
<!-- StatsDashboard&#45;&gt;MainMenu -->
<g id="edge64" class="edge">
<title>StatsDashboard-&gt;MainMenu</title>
<path fill="none" stroke="black" stroke-dasharray="1,5" d="M1634.66,-685.89C1624.05,-695.36 1614,-708.23 1614,-723 1614,-867.4 1614,-867.4 1614,-867.4 1614,-914.24 1240,-894.96 1194,-903.8 1179.65,-906.56 1164.35,-910.68 1150.43,-914.92"/>
<polygon fill="black" stroke="black" points="1149.54,-911.53 1141.05,-917.86 1151.64,-918.21 1149.54,-911.53"/>
<text text-anchor="middle" x="1631.11" y="-774.8" font-family="Times,serif" font-size="14.00">Home</text>
<polyline fill="none" stroke="black" points="1648.21,-770.6 1614,-770.6 1614,-778.84"/>
</g>
<!-- StatsOrdersByChef -->
<g id="node32" class="node">
<title>StatsOrdersByChef</title>
<polygon fill="white" stroke="black" points="1536.46,-559.2 1425.54,-559.2 1425.54,-523.2 1536.46,-523.2 1536.46,-559.2"/>
<text text-anchor="middle" x="1481" y="-537" font-family="Arial" font-size="14.00">Orders by Chef</text>
</g>
<!-- StatsDashboard&#45;&gt;StatsOrdersByChef -->
<g id="edge56" class="edge">
<title>StatsDashboard-&gt;StatsOrdersByChef</title>
<path fill="none" stroke="black" d="M1609.25,-652.01C1585.16,-643.17 1556.77,-630.29 1534.75,-613 1519.47,-601 1506.21,-583.67 1496.69,-569.16"/>
<polygon fill="black" stroke="black" points="1499.81,-567.55 1491.52,-560.95 1493.89,-571.27 1499.81,-567.55"/>
<text text-anchor="middle" x="1578.88" y="-600.4" font-family="Times,serif" font-size="14.00">Chef Deliveries</text>
<polyline fill="none" stroke="black" points="1623,-596.2 1534.75,-596.2 1564.03,-631.91"/>
</g>
<!-- StatsRevenue -->
<g id="node33" class="node">
<title>StatsRevenue</title>
<polygon fill="white" stroke="black" points="1691.98,-559.2 1560.02,-559.2 1560.02,-523.2 1691.98,-523.2 1691.98,-559.2"/>
<text text-anchor="middle" x="1626" y="-537" font-family="Arial" font-size="14.00">Revenue by Street</text>
</g>
<!-- StatsDashboard&#45;&gt;StatsRevenue -->
<g id="edge57" class="edge">
<title>StatsDashboard-&gt;StatsRevenue</title>
<path fill="none" stroke="black" d="M1647.28,-649.83C1640.96,-639.61 1633.71,-626.11 1630.02,-613 1626.19,-599.39 1624.98,-583.74 1624.82,-570.63"/>
<polygon fill="black" stroke="black" points="1628.32,-570.96 1624.91,-560.93 1621.32,-570.9 1628.32,-570.96"/>
<text text-anchor="middle" x="1654.51" y="-600.4" font-family="Times,serif" font-size="14.00">Revenue</text>
<polyline fill="none" stroke="black" points="1679,-596.2 1630.02,-596.2 1629.5,-611.07"/>
</g>
<!-- StatsAverages -->
<g id="node34" class="node">
<title>StatsAverages</title>
<polygon fill="white" stroke="black" points="1882.8,-559.2 1739.2,-559.2 1739.2,-523.2 1882.8,-523.2 1882.8,-559.2"/>
<text text-anchor="middle" x="1811" y="-537" font-family="Arial" font-size="14.00">Average Order Price</text>
</g>
<!-- StatsDashboard&#45;&gt;StatsAverages -->
<g id="edge58" class="edge">
<title>StatsDashboard-&gt;StatsAverages</title>
<path fill="none" stroke="black" d="M1734.81,-656.04C1759.74,-648.34 1784.7,-635.24 1799,-613 1806.98,-600.59 1810.14,-584.52 1811.24,-570.83"/>
<polygon fill="black" stroke="black" points="1814.73,-571.23 1811.68,-561.08 1807.73,-570.91 1814.73,-571.23"/>
<text text-anchor="middle" x="1854.57" y="-600.4" font-family="Times,serif" font-size="14.00">Avg. Order Price</text>
<polyline fill="none" stroke="black" points="1902.58,-596.2 1806.56,-596.2 1807.79,-592.06"/>
</g>
<!-- StatsCuisine -->
<g id="node35" class="node">
<title>StatsCuisine</title>
<polygon fill="white" stroke="black" points="2057.85,-559.2 1960.15,-559.2 1960.15,-523.2 2057.85,-523.2 2057.85,-559.2"/>
<text text-anchor="middle" x="2009" y="-537" font-family="Arial" font-size="14.00">Top Cuisines</text>
</g>
<!-- StatsDashboard&#45;&gt;StatsCuisine -->
<g id="edge59" class="edge">
<title>StatsDashboard-&gt;StatsCuisine</title>
<path fill="none" stroke="black" d="M1740.79,-657.43C1790.37,-649.64 1854.07,-636.04 1907,-613 1933.84,-601.32 1960.9,-582.11 1980.4,-566.65"/>
<polygon fill="black" stroke="black" points="1982.59,-569.38 1988.15,-560.36 1978.18,-563.94 1982.59,-569.38"/>
<text text-anchor="middle" x="1974.56" y="-600.4" font-family="Times,serif" font-size="14.00">Cuisine Prefs</text>
<polyline fill="none" stroke="black" points="2012.09,-596.2 1937.04,-596.2 1959.04,-582.68"/>
</g>
<!-- StatsOrdersByChef&#45;&gt;StatsDashboard -->
<g id="edge60" class="edge">
<title>StatsOrdersByChef-&gt;StatsDashboard</title>
<path fill="none" stroke="black" stroke-dasharray="1,5" d="M1476.66,-559.52C1473.84,-575.14 1472.57,-597.91 1484.23,-613 1502.07,-636.06 1529.6,-649.53 1557.56,-657.31"/>
<polygon fill="black" stroke="black" points="1556.68,-660.7 1567.23,-659.75 1558.39,-653.91 1556.68,-660.7"/>
<text text-anchor="middle" x="1498.62" y="-600.4" font-family="Times,serif" font-size="14.00">Back</text>
<polyline fill="none" stroke="black" points="1513,-596.2 1484.23,-596.2 1485.72,-614.87"/>
</g>
<!-- StatsRevenue&#45;&gt;StatsDashboard -->
<g id="edge61" class="edge">
<title>StatsRevenue-&gt;StatsDashboard</title>
<path fill="none" stroke="black" stroke-dasharray="1,5" d="M1650.21,-559.61C1661.22,-569.04 1673.09,-581.73 1679,-596.2 1684.72,-610.19 1680.88,-626.38 1675.09,-639.74"/>
<polygon fill="black" stroke="black" points="1672.1,-637.88 1670.84,-648.4 1678.39,-640.96 1672.1,-637.88"/>
<text text-anchor="middle" x="1696.2" y="-600.4" font-family="Times,serif" font-size="14.00">Back</text>
<polyline fill="none" stroke="black" points="1710.58,-596.2 1681.82,-596.2 1681.54,-606.34"/>
</g>
<!-- StatsAverages&#45;&gt;StatsDashboard -->
<g id="edge62" class="edge">
<title>StatsAverages-&gt;StatsDashboard</title>
<path fill="none" stroke="black" stroke-dasharray="1,5" d="M1789.95,-559.49C1763.6,-581.12 1718.33,-618.29 1688.53,-642.75"/>
<polygon fill="black" stroke="black" points="1686.49,-639.9 1680.99,-648.95 1690.94,-645.31 1686.49,-639.9"/>
<text text-anchor="middle" x="1759.49" y="-600.4" font-family="Times,serif" font-size="14.00">Back</text>
<polyline fill="none" stroke="black" points="1773.87,-596.2 1745.11,-596.2 1749.51,-592.69"/>
</g>
<!-- StatsCuisine&#45;&gt;StatsDashboard -->
<g id="edge63" class="edge">
<title>StatsCuisine-&gt;StatsDashboard</title>
<path fill="none" stroke="black" stroke-dasharray="1,5" d="M2017.12,-559.48C2023.22,-575.3 2028.56,-598.39 2016,-613 1984.61,-649.5 1862.38,-661.64 1769.61,-665.51"/>
<polygon fill="black" stroke="black" points="1769.53,-662.01 1759.67,-665.89 1769.8,-669.01 1769.53,-662.01"/>
<text text-anchor="middle" x="2037.57" y="-600.4" font-family="Times,serif" font-size="14.00">Back</text>
<polyline fill="none" stroke="black" points="2051.96,-596.2 2023.19,-596.2 2022.44,-600.28"/>
</g>
</g>
</svg>