<svg width="2127pt" height="1130pt" viewBox="0.00 0.00 2127.00 1130.20" xmlns="http://www.w3.org/2000/svg" xmlns:xlink="http://www.w3.org/1999/xlink">
<g id="graph0" class="graph" transform="scale(1 1) rotate(0) translate(4 1126.2)">
<title>LivInParisFrontend</title>
<polygon fill="white" stroke="none" points="-4,4 -4,-1126.2 2123,-1126.2 2123,4 -4,4"/>
<g id="clust1" class="cluster">
<title>cluster_auth</title>
<polygon fill="lightgrey" stroke="lightgrey" points="845,-903.8 845,-1114.2 1185,-1114.2 1185,-903.8 845,-903.8"/>
<text text-anchor="middle" x="1015" y="-1096.7" font-family="Times,serif" font-size="15.00">🔒 Authentication</text>
</g>
<g id="clust2" class="cluster">
<title>cluster_customer</title>
<path fill="none" stroke="steelblue" d="M20,-8C20,-8 595,-8 595,-8 601,-8 607,-14 607,-20 607,-20 607,-819 607,-819 607,-825 601,-831 595,-831 595,-831 20,-831 20,-831 14,-831 8,-825 8,-819 8,-819 8,-20 8,-20 8,-14 14,-8 20,-8"/>
<text text-anchor="middle" x="307.5" y="-813.5" font-family="Times,serif" font-size="15.00">👤 Customer View</text>
</g>
<g id="clust3" class="cluster">
<title>cluster_chef</title>
<path fill="none" stroke="seagreen" d="M627,-134.8C627,-134.8 1381,-134.8 1381,-134.8 1387,-134.8 1393,-140.8 1393,-146.8 1393,-146.8 1393,-819 1393,-819 1393,-825 1387,-831 1381,-831 1381,-831 627,-831 627,-831 621,-831 615,-825 615,-819 615,-819 615,-146.8 615,-146.8 615,-140.8 621,-134.8 627,-134.8"/>
<text text-anchor="middle" x="1004" y="-813.5" font-family="Times,serif" font-size="15.00">👨‍🍳 Chef View</text>
</g>
<g id="clust4" class="cluster">
<title>cluster_stats</title>
<path fill="none" stroke="mediumpurple" d="M1413,-515.2C1413,-515.2 2099,-515.2 2099,-515.2 2105,-515.2 2111,-521.2 2111,-527.2 2111,-527.2 2111,-819 2111,-819 2111,-825 2105,-831 2099,-831 2099,-831 1413,-831 1413,-831 1407,-831 1401,-825 1401,-819 1401,-819 1401,-527.2 1401,-527.2 1401,-521.2 1407,-515.2 1413,-515.2"/>
<text text-anchor="middle" x="1756" y="-813.5" font-family="Times,serif" font-size="15.00">📈 Statistics View</text>
</g>
<!-- Login -->
<g id="node1" class="node">
<title>Login</title>
<polygon fill="white" stroke="white" points="1086,-1080.2 1032,-1080.2 1032,-1044.2 1086,-1044.2 1086,-1080.2"/>
<text text-anchor="middle" x="1059" y="-1058" font-family="Arial" font-size="14.00">Login</text>
</g>
<!-- Register -->
<g id="node2" class="node">
<title>Register</title>
<polygon fill="white" stroke="white" points="941.07,-1080.2 872.93,-1080.2 872.93,-1044.2 941.07,-1044.2 941.07,-1080.2"/>
<text text-anchor="middle" x="907" y="-1058" font-family="Arial" font-size="14.00">Register</text>
</g>
<!-- Login&#45;&gt;Register -->
<g id="edge3" class="edge">
<title>Login-&gt;Register</title>
<path fill="none" stroke="black" d="M1031.91,-1054.29C1005.52,-1048.26 979.13,-1047.11 952.75,-1050.84"/>
<polygon fill="black" stroke="black" points="952.21,-1047.38 942.93,-1052.49 953.37,-1054.28 952.21,-1047.38"/>
<text text-anchor="middle" x="1012.43" y="-1054.63" font-family="Times,serif" font-size="14.00">Sign Up</text>
</g>
<!-- MainMenu -->
<g id="node3" class="node">
<title>MainMenu</title>
<ellipse fill="lightblue" stroke="white" cx="1059" cy="-932.6" rx="58.81" ry="18"/>
<text text-anchor="middle" x="1059" y="-928.4" font-family="Arial" font-size="14.00">Main Menu</text>
</g>
<!-- Login&#45;&gt;MainMenu -->
<g id="edge1" class="edge">
<title>Login-&gt;MainMenu</title>
<path fill="none" stroke="black" d="M1080.77,-1043.73C1094.98,-1030.06 1109.74,-1010.12 1103,-990.4 1099.06,-978.89 1091.74,-967.91 1084.19,-958.73"/>
<polygon fill="black" stroke="black" points="1086.9,-956.51 1077.67,-951.32 1081.65,-961.14 1086.9,-956.51"/>
<text text-anchor="middle" x="1125.67" y="-994.6" font-family="Times,serif" font-size="14.00">success</text>
<polyline fill="none" stroke="black" points="1146.67,-990.4 1104.68,-990.4 1104.65,-999.17"/>
</g>
<!-- ErrorPage -->
<g id="node4" class="node">
<title>ErrorPage</title>
<polygon fill="none" stroke="white" stroke-dasharray="1,5" points="969.57,-953.4 866.43,-953.4 866.43,-911.8 969.57,-911.8 969.57,-953.4"/>
<text text-anchor="middle" x="918" y="-936.8" font-family="Arial" font-size="14.00">Error</text>
<text text-anchor="middle" x="918" y="-920" font-family="Arial" font-size="14.00">(invalid creds)</text>
</g>
<!-- Login&#45;&gt;ErrorPage -->
<g id="edge2" class="edge">
<title>Login-&gt;ErrorPage</title>
<path fill="none" stroke="black" stroke-dasharray="1,5" d="M1039.69,-1043.73C1016.28,-1022.54 976.53,-986.56 948.85,-961.52"/>
<polygon fill="black" stroke="black" points="951.21,-958.94 941.45,-954.82 946.52,-964.13 951.21,-958.94"/>
<text text-anchor="middle" x="1008.37" y="-994.6" font-family="Times,serif" font-size="14.00">fail</text>
<polyline fill="none" stroke="black" points="1017.7,-990.4 999.04,-990.4 1000.06,-1007.87"/>
</g>
<!-- Register&#45;&gt;Login -->
<g id="edge6" class="edge">
<title>Register-&gt;Login</title>
<path fill="none" stroke="black" d="M941.44,-1071.66C967.94,-1076.81 994.45,-1077.04 1020.95,-1072.33"/>
<polygon fill="black" stroke="black" points="1021.32,-1075.83 1030.42,-1070.41 1019.93,-1068.97 1021.32,-1075.83"/>
<text text-anchor="middle" x="960.75" y="-1062.27" font-family="Times,serif" font-size="14.00">Sign In</text>
</g>
<!-- Register&#45;&gt;MainMenu -->
<g id="edge4" class="edge">
<title>Register-&gt;MainMenu</title>
<path fill="none" stroke="black" d="M910.06,-1043.78C913.62,-1028.08 920.91,-1005.27 935.01,-990.4 953.59,-970.81 980.22,-957.4 1004.04,-948.56"/>
<polygon fill="black" stroke="black" points="1005.04,-951.92 1013.32,-945.31 1002.73,-945.31 1005.04,-951.92"/>
<text text-anchor="middle" x="956.01" y="-994.6" font-family="Times,serif" font-size="14.00">success</text>
<polyline fill="none" stroke="black" points="977,-990.4 935.01,-990.4 942.1,-983.55"/>
</g>
<!-- Register&#45;&gt;ErrorPage -->
<g id="edge5" class="edge">
<title>Register-&gt;ErrorPage</title>
<path fill="none" stroke="black" stroke-dasharray="1,5" d="M896.07,-1043.84C888.44,-1029.57 880.44,-1008.78 885.34,-990.4 887.83,-981.1 892.23,-971.75 897.02,-963.39"/>
<polygon fill="black" stroke="black" points="899.9,-965.39 902.16,-955.04 893.94,-961.73 899.9,-965.39"/>
<text text-anchor="middle" x="894.67" y="-994.6" font-family="Times,serif" font-size="14.00">fail</text>
<polyline fill="none" stroke="black" points="904,-990.4 885.34,-990.4 885.35,-990.37"/>
</g>
<!-- MainMenu&#45;&gt;Login -->
<g id="edge10" class="edge">
<title>MainMenu-&gt;Login</title>
<path fill="none" stroke="black" stroke-dasharray="1,5" d="M1058.8,-950.85C1058.65,-965.77 1058.48,-987.91 1058.56,-1007.2 1058.59,-1015.51 1058.66,-1024.55 1058.72,-1032.81"/>
<polygon fill="black" stroke="black" points="1055.22,-1032.69 1058.81,-1042.66 1062.22,-1032.63 1055.22,-1032.69"/>
<text text-anchor="middle" x="1078.78" y="-994.6" font-family="Times,serif" font-size="14.00">Logout</text>
<polyline fill="none" stroke="black" points="1099,-990.4 1058.56,-990.4 1058.56,-1007.22"/>
</g>
<!-- CustomerView -->
<g id="node5" class="node">
<title>CustomerView</title>
<path fill="none" stroke="black" d="M411.51,-797C411.51,-797 328.49,-797 328.49,-797 322.49,-797 316.49,-791 316.49,-785 316.49,-785 316.49,-773 316.49,-773 316.49,-767 322.49,-761 328.49,-761 328.49,-761 411.51,-761 411.51,-761 417.51,-761 423.51,-767 423.51,-773 423.51,-773 423.51,-785 423.51,-785 423.51,-791 417.51,-797 411.51,-797"/>
<text text-anchor="middle" x="370" y="-774.8" font-family="Arial" font-size="14.00">CustomerView</text>
</g>
<!-- MainMenu&#45;&gt;CustomerView -->
<g id="edge7" class="edge">
<title>MainMenu-&gt;CustomerView</title>
<path fill="none" stroke="black" d="M1025.76,-917.45C1011.62,-912.12 994.77,-906.65 979,-903.8 866.15,-883.39 564.3,-929.94 463.73,-874.8 433.15,-858.03 406.09,-828.15 389.01,-806.41"/>
<polygon fill="black" stroke="black" points="391.87,-804.39 383.02,-798.57 386.3,-808.64 391.87,-804.39"/>
<text text-anchor="middle" x="507.87" y="-862.2" font-family="Times,serif" font-size="14.00">Customer View</text>
<polyline fill="none" stroke="black" points="552,-858 463.73,-858 463.73,-874.8"/>
</g>
<!-- ChefView -->
<g id="node6" class="node">
<title>ChefView</title>
<path fill="none" stroke="black" d="M1140.96,-797C1140.96,-797 1089.04,-797 1089.04,-797 1083.04,-797 1077.04,-791 1077.04,-785 1077.04,-785 1077.04,-773 1077.04,-773 1077.04,-767 1083.04,-761 1089.04,-761 1089.04,-761 1140.96,-761 1140.96,-761 1146.96,-761 1152.96,-767 1152.96,-773 1152.96,-773 1152.96,-785 1152.96,-785 1152.96,-791 1146.96,-797 1140.96,-797"/>
<text text-anchor="middle" x="1115" y="-774.8" font-family="Arial" font-size="14.00">ChefView</text>
</g>
<!-- MainMenu&#45;&gt;ChefView -->
<g id="edge8" class="edge">
<title>MainMenu-&gt;ChefView</title>
<path fill="none" stroke="black" d="M1065.42,-914.21C1075.04,-888.16 1093.29,-838.78 1104.76,-807.72"/>
<polygon fill="black" stroke="black" points="1107.94,-809.2 1108.13,-798.61 1101.38,-806.78 1107.94,-809.2"/>
<text text-anchor="middle" x="1116.59" y="-862.2" font-family="Times,serif" font-size="14.00">Chef View</text>
<polyline fill="none" stroke="black" points="1147.1,-858 1086.07,-858 1087.1,-855.52"/>
</g>
<!-- StatsView -->
<g id="node7" class="node">
<title>StatsView</title>
<path fill="none" stroke="black" d="M1564.12,-797C1564.12,-797 1509.88,-797 1509.88,-797 1503.88,-797 1497.88,-791 1497.88,-785 1497.88,-785 1497.88,-773 1497.88,-773 1497.88,-767 1503.88,-761 1509.88,-761 1509.88,-761 1564.12,-761 1564.12,-761 1570.12,-761 1576.12,-767 1576.12,-773 1576.12,-773 1576.12,-785 1576.12,-785 1576.12,-791 1570.12,-797 1564.12,-797"/>
<text text-anchor="middle" x="1537" y="-774.8" font-family="Arial" font-size="14.00">StatsView</text>
</g>
<!-- MainMenu&#45;&gt;StatsView -->
<g id="edge9" class="edge">
<title>MainMenu-&gt;StatsView</title>
<path fill="none" stroke="black" d="M1101.68,-919.79C1166.04,-901.77 1291.64,-865.84 1397,-831 1427.01,-821.08 1460.26,-809.01 1486.82,-799.11"/>
<polygon fill="black" stroke="black" points="1487.84,-802.46 1495.98,-795.68 1485.38,-795.91 1487.84,-802.46"/>
<text text-anchor="middle" x="1335.18" y="-862.2" font-family="Times,serif" font-size="14.00">Statistics</text>
<polyline fill="none" stroke="black" points="1360.46,-858 1309.9,-858 1330.65,-852.31"/>
</g>
<!-- CustomerDashboard -->
<g id="node8" class="node">
<title>CustomerDashboard</title>
<ellipse fill="lightsteelblue" stroke="black" cx="257" cy="-668" rx="102.82" ry="18"/>
<text text-anchor="middle" x="257" y="-663.8" font-family="Arial" font-size="14.00">Customer Dashboard</text>
</g>
<!-- CustomerView&#45;&gt;CustomerDashboard -->
<g id="edge11" class="edge">
<title>CustomerView-&gt;CustomerDashboard</title>
<path fill="none" stroke="black" d="M352.09,-760.73C333.5,-742.79 304.22,-714.54 283.06,-694.13"/>
<polygon fill="black" stroke="black" points="285.54,-691.66 275.91,-687.24 280.68,-696.7 285.54,-691.66"/>
</g>
<!-- ChefDashboard -->
<g id="node18" class="node">
<title>ChefDashboard</title>
<ellipse fill="lightgreen" stroke="black" cx="1055" cy="-668" rx="81.36" ry="18"/>
<text text-anchor="middle" x="1055" y="-663.8" font-family="Arial" font-size="14.00">Chef Dashboard</text>
</g>
<!-- ChefView&#45;&gt;ChefDashboard -->
<g id="edge33" class="edge">
<title>ChefView-&gt;ChefDashboard</title>
<path fill="none" stroke="black" d="M1105.62,-760.97C1096.08,-743.63 1081.14,-716.49 1069.96,-696.18"/>
<polygon fill="black" stroke="black" points="1073.13,-694.67 1065.24,-687.6 1066.99,-698.05 1073.13,-694.67"/>
</g>
<!-- StatsDashboard -->
<g id="node30" class="node">
<title>StatsDashboard</title>
<ellipse fill="thistle" stroke="black" cx="1679" cy="-668" rx="99.6" ry="18"/>
<text text-anchor="middle" x="1679" y="-663.8" font-family="Arial" font-size="14.00">Statistics Dashboard</text>
</g>
<!-- StatsView&#45;&gt;StatsDashboard -->
<g id="edge53" class="edge">
<title>StatsView-&gt;StatsDashboard</title>
<path fill="none" stroke="black" d="M1559.5,-760.73C1583.43,-742.36 1621.42,-713.2 1648.14,-692.69"/>
<polygon fill="black" stroke="black" points="1650.07,-695.62 1655.87,-686.75 1645.81,-690.07 1650.07,-695.62"/>
</g>
<!-- CustomerDashboard&#45;&gt;MainMenu -->
<g id="edge32" class="edge">
<title>CustomerDashboard-&gt;MainMenu</title>
<path fill="none" stroke="black" stroke-dasharray="1,5" d="M348.87,-676.34C439.96,-684.89 566,-700.74 566,-723 566,-867.4 566,-867.4 566,-867.4 566,-913.47 933.96,-894.14 979,-903.8 990.66,-906.3 1002.96,-910 1014.32,-913.9"/>
<polygon fill="black" stroke="black" points="1012.86,-917.09 1023.45,-917.15 1015.21,-910.5 1012.86,-917.09"/>
<text text-anchor="middle" x="583.11" y="-774.8" font-family="Times,serif" font-size="14.00">Home</text>
<polyline fill="none" stroke="black" points="600.21,-770.6 566,-770.6 566,-778.84"/>
</g>
<!-- BrowseDishes -->
<g id="node9" class="node">
<title>BrowseDishes</title>
<polygon fill="white" stroke="black" points="437.68,-559.2 328.32,-559.2 328.32,-523.2 437.68,-523.2 437.68,-559.2"/>
<text text-anchor="middle" x="383" y="-537" font-family="Arial" font-size="14.00">Browse Dishes</text>
</g>
<!-- CustomerDashboard&#45;&gt;BrowseDishes -->
<g id="edge12" class="edge">
<title>CustomerDashboard-&gt;BrowseDishes</title>
<path fill="none" stroke="black" d="M282.27,-650.22C296.44,-640.23 314.02,-626.84 328,-613 341.66,-599.48 354.94,-582.52 365.03,-568.6"/>
<polygon fill="black" stroke="black" points="367.66,-570.94 370.59,-560.75 361.95,-566.89 367.66,-570.94"/>
<text text-anchor="middle" x="382.27" y="-600.4" font-family="Times,serif" font-size="14.00">Browse Menu</text>
<polyline fill="none" stroke="black" points="421.74,-596.2 342.81,-596.2 354.45,-582.7"/>
</g>
<!-- MyOrders -->
<g id="node14" class="node">
<title>MyOrders</title>
<polygon fill="white" stroke="black" points="139.67,-559.2 58.33,-559.2 58.33,-523.2 139.67,-523.2 139.67,-559.2"/>
<text text-anchor="middle" x="99" y="-537" font-family="Arial" font-size="14.00">My Orders</text>
</g>
<!-- CustomerDashboard&#45;&gt;MyOrders -->
<g id="edge13" class="edge">
<title>CustomerDashboard-&gt;MyOrders</title>
<path fill="none" stroke="black" d="M165.26,-659.71C134.79,-652.39 103.87,-638.6 85.08,-613 75.98,-600.61 78.81,-583.83 84.21,-569.71"/>
<polygon fill="black" stroke="black" points="87.25,-571.5 88.08,-560.94 80.84,-568.68 87.25,-571.5"/>
<text text-anchor="middle" x="121.04" y="-600.4" font-family="Times,serif" font-size="14.00">View Orders</text>
<polyline fill="none" stroke="black" points="157,-596.2 85.08,-596.2 85.07,-612.99"/>
</g>
<!-- Profile_C -->
<g id="node16" class="node">
<title>Profile_C</title>
<polygon fill="white" stroke="black" points="283.12,-559.2 204.88,-559.2 204.88,-523.2 283.12,-523.2 283.12,-559.2"/>
<text text-anchor="middle" x="244" y="-537" font-family="Arial" font-size="14.00">My Profile</text>
</g>
<!-- CustomerDashboard&#45;&gt;Profile_C -->
<g id="edge14" class="edge">
<title>CustomerDashboard-&gt;Profile_C</title>
<path fill="none" stroke="black" d="M255.19,-649.65C253.07,-629.25 249.51,-595.1 246.98,-570.78"/>
<polygon fill="black" stroke="black" points="250.47,-570.49 245.95,-560.91 243.5,-571.22 250.47,-570.49"/>
<text text-anchor="middle" x="270.42" y="-600.4" font-family="Times,serif" font-size="14.00">Profile</text>
<polyline fill="none" stroke="black" points="289.47,-596.2 251.36,-596.2 250.72,-606.7"/>
</g>
<!-- BrowseDishes&#45;&gt;BrowseDishes -->
<g id="edge18" class="edge">
<title>BrowseDishes-&gt;BrowseDishes</title>
<path fill="none" stroke="black" stroke-dasharray="5,2" d="M438.15,-547.69C448.44,-546.89 455.68,-544.73 455.68,-541.2 455.68,-539.16 453.26,-537.58 449.23,-536.45"/>
<polygon fill="black" stroke="black" points="450.06,-533.04 439.64,-534.94 448.98,-539.95 450.06,-533.04"/>
<text text-anchor="middle" x="488.73" y="-537" font-family="Times,serif" font-size="14.00">Add to Cart</text>
<polyline fill="none" stroke="black" points="521.79,-532.8 455.68,-532.8 455.68,-541.1"/>
</g>
<!-- DishDetail -->
<g id="node10" class="node">
<title>DishDetail</title>
<polygon fill="white" stroke="black" points="570.84,-432.4 487.16,-432.4 487.16,-396.4 570.84,-396.4 570.84,-432.4"/>
<text text-anchor="middle" x="529" y="-410.2" font-family="Arial" font-size="14.00">Dish Detail</text>
</g>
<!-- BrowseDishes&#45;&gt;DishDetail -->
<g id="edge22" class="edge">
<title>BrowseDishes-&gt;DishDetail</title>
<path fill="none" stroke="black" d="M438.1,-529.67C464.37,-521.9 494.11,-508.64 513,-486.2 522.83,-474.53 526.94,-458.05 528.54,-443.94"/>
<polygon fill="black" stroke="black" points="532.01,-444.53 529.26,-434.3 525.02,-444.01 532.01,-444.53"/>
<text text-anchor="middle" x="554.32" y="-473.6" font-family="Times,serif" font-size="14.00">Select Dish</text>
<polyline fill="none" stroke="black" points="586.4,-469.4 522.24,-469.4 523.5,-467.01"/>
</g>
<!-- Cart -->
<g id="node11" class="node">
<title>Cart</title>
<polygon fill="white" stroke="black" points="324.75,-305.6 219.25,-305.6 219.25,-269.6 324.75,-269.6 324.75,-305.6"/>
<text text-anchor="middle" x="272" y="-283.4" font-family="Arial" font-size="14.00">Shopping Cart</text>
</g>
<!-- BrowseDishes&#45;&gt;Cart -->
<g id="edge19" class="edge">
<title>BrowseDishes-&gt;Cart</title>
<path fill="none" stroke="black" d="M382.86,-522.84C382.51,-485.84 381.45,-402.11 379,-396.4 364.11,-361.64 332.33,-332 307.25,-312.65"/>
<polygon fill="black" stroke="black" points="309.68,-310.09 299.57,-306.9 305.48,-315.7 309.68,-310.09"/>
<text text-anchor="middle" x="410.27" y="-410.2" font-family="Times,serif" font-size="14.00">View Cart</text>
<polyline fill="none" stroke="black" points="439.23,-406 381.3,-406 380.58,-413.31"/>
</g>
<!-- DishDetail&#45;&gt;BrowseDishes -->
<g id="edge15" class="edge">
<title>DishDetail-&gt;BrowseDishes</title>
<path fill="none" stroke="black" stroke-dasharray="1,5" d="M486.77,-429.4C455.36,-440.59 416.02,-456.47 404.49,-469.4 394.14,-481.01 388.77,-497.48 385.99,-511.61"/>
<polygon fill="black" stroke="black" points="382.57,-510.85 384.45,-521.28 389.48,-511.96 382.57,-510.85"/>
<text text-anchor="middle" x="458.75" y="-473.6" font-family="Times,serif" font-size="14.00">Continue Shopping</text>
<polyline fill="none" stroke="black" points="513,-469.4 404.49,-469.4 438.15,-448.76"/>
</g>
<!-- DishDetail&#45;&gt;Cart -->
<g id="edge23" class="edge">
<title>DishDetail-&gt;Cart</title>
<path fill="none" stroke="black" d="M509.5,-396.2C482.84,-372.99 436.03,-333.4 416,-323.6 391.24,-311.49 361.98,-303.38 336.32,-298.05"/>
<polygon fill="black" stroke="black" points="337.17,-294.65 326.68,-296.16 335.82,-301.52 337.17,-294.65"/>
<text text-anchor="middle" x="493.8" y="-346.8" font-family="Times,serif" font-size="14.00">View Cart</text>
<polyline fill="none" stroke="black" points="522.77,-342.6 464.84,-342.6 478,-369.35"/>
</g>
<!-- Checkout -->
<g id="node12" class="node">
<title>Checkout</title>
<polygon fill="white" stroke="black" points="309.57,-178.8 234.43,-178.8 234.43,-142.8 309.57,-142.8 309.57,-178.8"/>
<text text-anchor="middle" x="272" y="-156.6" font-family="Arial" font-size="14.00">Checkout</text>
</g>
<!-- DishDetail&#45;&gt;Checkout -->
<g id="edge21" class="edge">
<title>DishDetail-&gt;Checkout</title>
<path fill="none" stroke="black" d="M529,-395.93C529,-383.65 529,-366.82 529,-352 529,-352 529,-352 529,-223.2 529,-180.96 396.02,-167.72 321.37,-163.61"/>
<polygon fill="black" stroke="black" points="321.6,-160.12 311.43,-163.11 321.24,-167.11 321.6,-160.12"/>
<text text-anchor="middle" x="556.03" y="-283.4" font-family="Times,serif" font-size="14.00">Buy Now</text>
<polyline fill="none" stroke="black" points="583.06,-279.2 529,-279.2 529,-335.9"/>
</g>
<!-- Cart&#45;&gt;BrowseDishes -->
<g id="edge20" class="edge">
<title>Cart-&gt;BrowseDishes</title>
<path fill="none" stroke="black" stroke-dasharray="1,5" d="M266.69,-305.87C259.1,-333.81 247.98,-390.05 266.49,-432.4 268.88,-437.86 321.27,-485.19 354.97,-515.29"/>
<polygon fill="black" stroke="black" points="352.59,-517.86 362.38,-521.9 357.25,-512.63 352.59,-517.86"/>
<text text-anchor="middle" x="320.75" y="-410.2" font-family="Times,serif" font-size="14.00">Continue Shopping</text>
<polyline fill="none" stroke="black" points="375,-406 266.49,-406 285.25,-451.77"/>
</g>
<!-- Cart&#45;&gt;Cart -->
<g id="edge25" class="edge">
<title>Cart-&gt;Cart</title>
<path fill="none" stroke="black" stroke-dasharray="5,2" d="M325.07,-294.14C335.41,-293.38 342.75,-291.2 342.75,-287.6 342.75,-285.52 340.3,-283.91 336.23,-282.78"/>
<polygon fill="black" stroke="black" points="336.98,-279.36 326.57,-281.29 335.92,-286.27 336.98,-279.36"/>
<text text-anchor="middle" x="417.98" y="-283.4" font-family="Times,serif" font-size="14.00">Update Quantity / Remove</text>
<polyline fill="none" stroke="black" points="493.22,-279.2 342.75,-279.2 342.75,-287.55"/>
</g>
<!-- Cart&#45;&gt;Checkout -->
<g id="edge24" class="edge">
<title>Cart-&gt;Checkout</title>
<path fill="none" stroke="black" d="M272,-269.25C272,-248.85 272,-214.7 272,-190.38"/>
<polygon fill="black" stroke="black" points="275.5,-190.52 272,-180.52 268.5,-190.52 275.5,-190.52"/>
<text text-anchor="middle" x="330.32" y="-220" font-family="Times,serif" font-size="14.00">Proceed to Checkout</text>
<polyline fill="none" stroke="black" points="388.63,-215.8 272,-215.8 272,-223.97"/>
</g>
<!-- OrderConfirmation -->
<g id="node13" class="node">
<title>OrderConfirmation</title>
<polygon fill="white" stroke="black" points="245.52,-52 110.48,-52 110.48,-16 245.52,-16 245.52,-52"/>
<text text-anchor="middle" x="178" y="-29.8" font-family="Arial" font-size="14.00">Order Confirmation</text>
</g>
<!-- Checkout&#45;&gt;OrderConfirmation -->
<g id="edge30" class="edge">
<title>Checkout-&gt;OrderConfirmation</title>
<path fill="none" stroke="black" d="M258.93,-142.45C243.08,-121.4 216.19,-85.71 197.79,-61.28"/>
<polygon fill="black" stroke="black" points="200.68,-59.3 191.87,-53.41 195.09,-63.51 200.68,-59.3"/>
<text text-anchor="middle" x="264.48" y="-93.2" font-family="Times,serif" font-size="14.00">Place Order</text>
<polyline fill="none" stroke="black" points="297.72,-89 231.25,-89 239.21,-116.27"/>
</g>
<!-- OrderConfirmation&#45;&gt;CustomerDashboard -->
<g id="edge31" class="edge">
<title>OrderConfirmation-&gt;CustomerDashboard</title>
<path fill="none" stroke="black" stroke-dasharray="1,5" d="M110.22,-38.87C72.87,-45.09 34,-60.25 34,-96.4 34,-324.6 34,-324.6 34,-324.6 34,-381.02 17,-393.98 17,-450.4 17,-605.6 17,-605.6 17,-605.6 17,-635.48 87.72,-651.02 152.38,-658.97"/>
<polygon fill="black" stroke="black" points="151.68,-662.41 162.02,-660.1 152.49,-655.46 151.68,-662.41"/>
<text text-anchor="middle" x="48.46" y="-346.8" font-family="Times,serif" font-size="14.00">Done</text>
<polyline fill="none" stroke="black" points="63.62,-342.6 33.3,-342.6 34,-324.6"/>
</g>
<!-- MyOrders&#45;&gt;CustomerDashboard -->
<g id="edge16" class="edge">
<title>MyOrders-&gt;CustomerDashboard</title>
<path fill="none" stroke="black" stroke-dasharray="1,5" d="M120.98,-559.57C148.61,-581.38 196.13,-618.92 227.05,-643.35"/>
<polygon fill="black" stroke="black" points="224.49,-645.78 234.5,-649.23 228.83,-640.29 224.49,-645.78"/>
<text text-anchor="middle" x="202.89" y="-600.4" font-family="Times,serif" font-size="14.00">Back</text>
<polyline fill="none" stroke="black" points="217.27,-596.2 188.51,-596.2 193.43,-616.79"/>
</g>
<!-- OrderDetail_C -->
<g id="node15" class="node">
<title>OrderDetail_C</title>
<polygon fill="white" stroke="black" points="127.73,-432.4 36.27,-432.4 36.27,-396.4 127.73,-396.4 127.73,-432.4"/>
<text text-anchor="middle" x="82" y="-410.2" font-family="Arial" font-size="14.00">Order Detail</text>
</g>
<!-- MyOrders&#45;&gt;OrderDetail_C -->
<g id="edge26" class="edge">
<title>MyOrders-&gt;OrderDetail_C</title>
<path fill="none" stroke="black" d="M85.72,-522.77C78.87,-512.67 71.22,-499.39 67.68,-486.2 63.92,-472.24 66.45,-456.51 70.37,-443.42"/>
<polygon fill="black" stroke="black" points="73.61,-444.74 73.55,-434.14 66.99,-442.46 73.61,-444.74"/>
<text text-anchor="middle" x="82.84" y="-473.6" font-family="Times,serif" font-size="14.00">View</text>
<polyline fill="none" stroke="black" points="98,-469.4 67.68,-469.4 66.45,-480.22"/>
</g>
<!-- OrderDetail_C&#45;&gt;MyOrders -->
<g id="edge27" class="edge">
<title>OrderDetail_C-&gt;MyOrders</title>
<path fill="none" stroke="black" stroke-dasharray="1,5" d="M88.42,-432.63C91.99,-443.1 96.09,-456.83 98,-469.4 100.09,-483.12 100.53,-498.51 100.37,-511.43"/>
<polygon fill="black" stroke="black" points="96.87,-511.32 100.11,-521.41 103.87,-511.51 96.87,-511.32"/>
<text text-anchor="middle" x="114.1" y="-473.6" font-family="Times,serif" font-size="14.00">Back</text>
<polyline fill="none" stroke="black" points="128.48,-469.4 99.72,-469.4 99.21,-479.27"/>
</g>
<!-- Profile_C&#45;&gt;CustomerDashboard -->
<g id="edge17" class="edge">
<title>Profile_C-&gt;CustomerDashboard</title>
<path fill="none" stroke="black" stroke-dasharray="1,5" d="M265.91,-559.49C276.23,-569.06 287.48,-581.91 293,-596.2 298.91,-611.52 291.54,-627.91 281.95,-641.06"/>
<polygon fill="black" stroke="black" points="279.24,-638.84 275.69,-648.82 284.69,-643.23 279.24,-638.84"/>
<text text-anchor="middle" x="309.5" y="-600.4" font-family="Times,serif" font-size="14.00">Back</text>
<polyline fill="none" stroke="black" points="323.88,-596.2 295.11,-596.2 295.05,-605.63"/>
</g>
<!-- EditProfile_C -->
<g id="node17" class="node">
<title>EditProfile_C</title>
<polygon fill="white" stroke="black" points="229.85,-432.4 146.15,-432.4 146.15,-396.4 229.85,-396.4 229.85,-432.4"/>
<text text-anchor="middle" x="188" y="-410.2" font-family="Arial" font-size="14.00">Edit Profile</text>
</g>
<!-- Profile_C&#45;&gt;EditProfile_C -->
<g id="edge28" class="edge">
<title>Profile_C-&gt;EditProfile_C</title>
<path fill="none" stroke="black" d="M225.25,-522.97C215.74,-513.14 204.91,-500.03 198.67,-486.2 192.76,-473.1 190.01,-457.39 188.77,-444.11"/>
<polygon fill="black" stroke="black" points="192.27,-443.98 188.12,-434.24 185.29,-444.45 192.27,-443.98"/>
<text text-anchor="middle" x="210.33" y="-473.6" font-family="Times,serif" font-size="14.00">Edit</text>
<polyline fill="none" stroke="black" points="222,-469.4 198.67,-469.4 197.34,-483.08"/>
</g>
<!-- EditProfile_C&#45;&gt;Profile_C -->
<g id="edge29" class="edge">
<title>EditProfile_C-&gt;Profile_C</title>
<path fill="none" stroke="black" stroke-dasharray="1,5" d="M200.55,-432.74C207.57,-443.02 216.07,-456.52 222,-469.4 228.25,-482.96 233.35,-498.77 237.06,-512.01"/>
<polygon fill="black" stroke="black" points="233.61,-512.64 239.57,-521.39 240.37,-510.83 233.61,-512.64"/>
<text text-anchor="middle" x="263.8" y="-473.6" font-family="Times,serif" font-size="14.00">Save/Cancel</text>
<polyline fill="none" stroke="black" points="298.78,-469.4 228.81,-469.4 230.13,-489.8"/>
</g>
<!-- ChefDashboard&#45;&gt;MainMenu -->
<g id="edge52" class="edge">
<title>ChefDashboard-&gt;MainMenu</title>
<path fill="none" stroke="black" stroke-dasharray="1,5" d="M1040,-685.7C1032.5,-695.77 1025,-709.27 1025,-723 1025,-867.4 1025,-867.4 1025,-867.4 1025,-880.92 1030.96,-894.37 1037.89,-905.44"/>
<polygon fill="black" stroke="black" points="1034.97,-907.38 1043.53,-913.63 1040.74,-903.41 1034.97,-907.38"/>
<text text-anchor="middle" x="1042.11" y="-774.8" font-family="Times,serif" font-size="14.00">Home</text>
<polyline fill="none" stroke="black" points="1059.21,-770.6 1025,-770.6 1025,-778.84"/>
</g>
<!-- ManageMenu -->
<g id="node19" class="node">
<title>ManageMenu</title>
<polygon fill="white" stroke="black" points="980.75,-559.2 875.25,-559.2 875.25,-523.2 980.75,-523.2 980.75,-559.2"/>
<text text-anchor="middle" x="928" y="-537" font-family="Arial" font-size="14.00">Manage Menu</text>
</g>
<!-- ChefDashboard&#45;&gt;ManageMenu -->
<g id="edge34" class="edge">
<title>ChefDashboard-&gt;ManageMenu</title>
<path fill="none" stroke="black" d="M1020.93,-651.28C1003.4,-641.97 982.58,-628.88 967.39,-613 955.46,-600.52 945.92,-583.74 939.21,-569.65"/>
<polygon fill="black" stroke="black" points="942.57,-568.57 935.27,-560.89 936.18,-571.44 942.57,-568.57"/>
<text text-anchor="middle" x="1012.69" y="-600.4" font-family="Times,serif" font-size="14.00">Menu Proposals</text>
<polyline fill="none" stroke="black" points="1058,-596.2 967.39,-596.2 992.41,-634"/>
</g>
<!-- IncomingOrders -->
<g id="node22" class="node">
<title>IncomingOrders</title>
<polygon fill="white" stroke="black" points="1331.74,-559.2 1212.26,-559.2 1212.26,-523.2 1331.74,-523.2 1331.74,-559.2"/>
<text text-anchor="middle" x="1272" y="-537" font-family="Arial" font-size="14.00">Incoming Orders</text>
</g>
<!-- ChefDashboard&#45;&gt;IncomingOrders -->
<g id="edge39" class="edge">
<title>ChefDashboard-&gt;IncomingOrders</title>
<path fill="none" stroke="black" d="M1083.37,-650.68C1121.34,-628.85 1188.89,-590 1232.01,-565.2"/>
<polygon fill="black" stroke="black" points="1233.64,-568.3 1240.57,-560.28 1230.15,-562.23 1233.64,-568.3"/>
<text text-anchor="middle" x="1196.98" y="-600.4" font-family="Times,serif" font-size="14.00">Orders</text>
<polyline fill="none" stroke="black" points="1216.03,-596.2 1177.93,-596.2 1188.87,-590.01"/>
</g>
<!-- MyDeliveries -->
<g id="node26" class="node">
<title>MyDeliveries</title>
<polygon fill="white" stroke="black" points="756.01,-559.2 655.99,-559.2 655.99,-523.2 756.01,-523.2 756.01,-559.2"/>
<text text-anchor="middle" x="706" y="-537" font-family="Arial" font-size="14.00">My Deliveries</text>
</g>
<!-- ChefDashboard&#45;&gt;MyDeliveries -->
<g id="edge45" class="edge">
<title>ChefDashboard-&gt;MyDeliveries</title>
<path fill="none" stroke="black" d="M1009.98,-652.61C977.26,-642.01 931.97,-627.05 892.47,-613 847.93,-597.15 797.86,-578.07 760.83,-563.71"/>
<polygon fill="black" stroke="black" points="762.26,-560.52 751.67,-560.16 759.73,-567.04 762.26,-560.52"/>
<text text-anchor="middle" x="921.23" y="-600.4" font-family="Times,serif" font-size="14.00">Deliveries</text>
<polyline fill="none" stroke="black" points="950,-596.2 892.47,-596.2 915.66,-621.13"/>
</g>
<!-- Profile_H -->
<g id="node28" class="node">
<title>Profile_H</title>
<polygon fill="white" stroke="black" points="1160.12,-559.2 1081.88,-559.2 1081.88,-523.2 1160.12,-523.2 1160.12,-559.2"/>
<text text-anchor="middle" x="1121" y="-537" font-family="Arial" font-size="14.00">My Profile</text>
</g>
<!-- ChefDashboard&#45;&gt;Profile_H -->
<g id="edge48" class="edge">
<title>ChefDashboard-&gt;Profile_H</title>
<path fill="none" stroke="black" d="M1055.68,-649.5C1056.89,-634.59 1060.15,-612.97 1068.9,-596.2 1074.41,-585.63 1082.64,-575.72 1090.93,-567.34"/>
<polygon fill="black" stroke="black" points="1093.23,-569.99 1098.06,-560.56 1088.41,-564.92 1093.23,-569.99"/>
<text text-anchor="middle" x="1087.95" y="-600.4" font-family="Times,serif" font-size="14.00">Profile</text>
<polyline fill="none" stroke="black" points="1107,-596.2 1068.9,-596.2 1069.69,-594.72"/>
</g>
<!-- CreateProposal -->
<g id="node20" class="node">
<title>CreateProposal</title>
<polygon fill="white" stroke="black" points="1008.58,-432.4 891.42,-432.4 891.42,-396.4 1008.58,-396.4 1008.58,-432.4"/>
<text text-anchor="middle" x="950" y="-410.2" font-family="Arial" font-size="14.00">Create Proposal</text>
</g>
<!-- ManageMenu&#45;&gt;CreateProposal -->
<g id="edge35" class="edge">
<title>ManageMenu-&gt;CreateProposal</title>
<path fill="none" stroke="black" d="M971.15,-522.81C986.59,-514.23 1002.31,-502.22 1011,-486.2 1020.33,-468.99 1007.32,-452.28 990.95,-439.41"/>
<polygon fill="black" stroke="black" points="993.01,-436.59 982.86,-433.57 988.91,-442.26 993.01,-436.59"/>
<text text-anchor="middle" x="1027.34" y="-473.6" font-family="Times,serif" font-size="14.00">New</text>
<polyline fill="none" stroke="black" points="1040.56,-469.4 1014.12,-469.4 1014.05,-476.2"/>
</g>
<!-- EditProposal -->
<g id="node21" class="node">
<title>EditProposal</title>
<polygon fill="white" stroke="black" points="870.63,-432.4 771.37,-432.4 771.37,-396.4 870.63,-396.4 870.63,-432.4"/>
<text text-anchor="middle" x="821" y="-410.2" font-family="Arial" font-size="14.00">Edit Proposal</text>
</g>
<!-- ManageMenu&#45;&gt;EditProposal -->
<g id="edge36" class="edge">
<title>ManageMenu-&gt;EditProposal</title>
<path fill="none" stroke="black" d="M913.12,-522.85C894.92,-501.61 863.93,-465.47 842.98,-441.03"/>
<polygon fill="black" stroke="black" points="845.9,-439.07 836.74,-433.75 840.59,-443.62 845.9,-439.07"/>
<text text-anchor="middle" x="893.28" y="-473.6" font-family="Times,serif" font-size="14.00">Edit</text>
<polyline fill="none" stroke="black" points="904.95,-469.4 881.61,-469.4 882.33,-486.93"/>
</g>
<!-- CreateProposal&#45;&gt;ManageMenu -->
<g id="edge37" class="edge">
<title>CreateProposal-&gt;ManageMenu</title>
<path fill="none" stroke="black" stroke-dasharray="1,5" d="M945.31,-432.81C942.6,-443.34 939.29,-457.07 937.03,-469.4 934.48,-483.3 932.41,-498.88 930.9,-511.87"/>
<polygon fill="black" stroke="black" points="927.46,-511.12 929.84,-521.45 934.42,-511.89 927.46,-511.12"/>
<text text-anchor="middle" x="972.01" y="-473.6" font-family="Times,serif" font-size="14.00">Save/Cancel</text>
<polyline fill="none" stroke="black" points="1007,-469.4 937.03,-469.4 936.67,-471.37"/>
</g>
<!-- EditProposal&#45;&gt;ManageMenu -->
<g id="edge38" class="edge">
<title>EditProposal-&gt;ManageMenu</title>
<path fill="none" stroke="black" stroke-dasharray="1,5" d="M805.33,-432.72C793.74,-447.72 781.77,-469.56 793.03,-486.2 809.07,-509.9 837.38,-523.19 863.94,-530.66"/>
<polygon fill="black" stroke="black" points="862.76,-533.97 873.31,-533.05 864.49,-527.19 862.76,-533.97"/>
<text text-anchor="middle" x="828.01" y="-473.6" font-family="Times,serif" font-size="14.00">Save/Cancel</text>
<polyline fill="none" stroke="black" points="863,-469.4 793.03,-469.4 806.64,-501.65"/>
</g>
<!-- OrderDetail_H -->
<g id="node23" class="node">
<title>OrderDetail_H</title>
<polygon fill="white" stroke="black" points="1372.73,-432.4 1281.27,-432.4 1281.27,-396.4 1372.73,-396.4 1372.73,-432.4"/>
<text text-anchor="middle" x="1327" y="-410.2" font-family="Arial" font-size="14.00">Order Detail</text>
</g>
<!-- IncomingOrders&#45;&gt;OrderDetail_H -->
<g id="edge40" class="edge">
<title>IncomingOrders-&gt;OrderDetail_H</title>
<path fill="none" stroke="black" d="M1294.71,-522.71C1305.29,-513.17 1316.88,-500.41 1323,-486.2 1328.63,-473.13 1329.99,-457.42 1329.79,-444.13"/>
<polygon fill="black" stroke="black" points="1333.29,-444.08 1329.32,-434.26 1326.3,-444.41 1333.29,-444.08"/>
<text text-anchor="middle" x="1342.99" y="-473.6" font-family="Times,serif" font-size="14.00">View</text>
<polyline fill="none" stroke="black" points="1358.15,-469.4 1327.83,-469.4 1326.96,-473.99"/>
</g>
<!-- OrderDetail_H&#45;&gt;IncomingOrders -->
<g id="edge44" class="edge">
<title>OrderDetail_H-&gt;IncomingOrders</title>
<path fill="none" stroke="black" stroke-dasharray="1,5" d="M1313.11,-432.48C1305.41,-442.67 1296.22,-456.17 1290.23,-469.4 1284.23,-482.68 1279.94,-498.29 1277.04,-511.47"/>
<polygon fill="black" stroke="black" points="1273.61,-510.78 1275.05,-521.28 1280.47,-512.17 1273.61,-510.78"/>
<text text-anchor="middle" x="1304.62" y="-473.6" font-family="Times,serif" font-size="14.00">Back</text>
<polyline fill="none" stroke="black" points="1319,-469.4 1290.23,-469.4 1289.4,-471.28"/>
</g>
<!-- AcceptRejectOrder -->
<g id="node24" class="node">
<title>AcceptRejectOrder</title>
<polygon fill="white" stroke="black" points="1382.08,-305.6 1271.92,-305.6 1271.92,-269.6 1382.08,-269.6 1382.08,-305.6"/>
<text text-anchor="middle" x="1327" y="-283.4" font-family="Arial" font-size="14.00">Accept / Reject</text>
</g>
<!-- OrderDetail_H&#45;&gt;AcceptRejectOrder -->
<g id="edge41" class="edge">
<title>OrderDetail_H-&gt;AcceptRejectOrder</title>
<path fill="none" stroke="black" d="M1327,-396.05C1327,-375.65 1327,-341.5 1327,-317.18"/>
<polygon fill="black" stroke="black" points="1330.5,-317.32 1327,-307.32 1323.5,-317.32 1330.5,-317.32"/>
<text text-anchor="middle" x="1346.82" y="-346.8" font-family="Times,serif" font-size="14.00">Decide</text>
<polyline fill="none" stroke="black" points="1366.64,-342.6 1327,-342.6 1327,-350.77"/>
</g>
<!-- UpdateStatus -->
<g id="node25" class="node">
<title>UpdateStatus</title>
<polygon fill="white" stroke="black" points="1332.36,-178.8 1227.64,-178.8 1227.64,-142.8 1332.36,-142.8 1332.36,-178.8"/>
<text text-anchor="middle" x="1280" y="-156.6" font-family="Arial" font-size="14.00">Update Status</text>
</g>
<!-- AcceptRejectOrder&#45;&gt;UpdateStatus -->
<g id="edge42" class="edge">
<title>AcceptRejectOrder-&gt;UpdateStatus</title>
<path fill="none" stroke="black" d="M1320.46,-269.25C1312.71,-248.66 1299.69,-214.08 1290.51,-189.71"/>
<polygon fill="black" stroke="black" points="1293.81,-188.55 1287.01,-180.42 1287.26,-191.01 1293.81,-188.55"/>
<text text-anchor="middle" x="1330.35" y="-220" font-family="Times,serif" font-size="14.00">Confirm</text>
<polyline fill="none" stroke="black" points="1354.07,-215.8 1306.63,-215.8 1306.78,-232.9"/>
</g>
<!-- UpdateStatus&#45;&gt;IncomingOrders -->
<g id="edge43" class="edge">
<title>UpdateStatus-&gt;IncomingOrders</title>
<path fill="none" stroke="black" stroke-dasharray="1,5" d="M1267.76,-179.19C1260.62,-191.02 1253,-207.36 1253,-223.2 1253,-478.8 1253,-478.8 1253,-478.8 1253,-490.11 1255.98,-502.09 1259.58,-512.43"/>
<polygon fill="black" stroke="black" points="1256.21,-513.42 1263.07,-521.49 1262.74,-510.9 1256.21,-513.42"/>
<text text-anchor="middle" x="1267.38" y="-346.8" font-family="Times,serif" font-size="14.00">Back</text>
<polyline fill="none" stroke="black" points="1281.77,-342.6 1253,-342.6 1253,-446.85"/>
</g>
<!-- DeliveryDetail -->
<g id="node27" class="node">
<title>DeliveryDetail</title>
<polygon fill="white" stroke="black" points="746.12,-432.4 639.88,-432.4 639.88,-396.4 746.12,-396.4 746.12,-432.4"/>
<text text-anchor="middle" x="693" y="-410.2" font-family="Arial" font-size="14.00">Delivery Detail</text>
</g>
<!-- MyDeliveries&#45;&gt;DeliveryDetail -->
<g id="edge46" class="edge">
<title>MyDeliveries-&gt;DeliveryDetail</title>
<path fill="none" stroke="black" d="M704.19,-522.85C702.07,-502.45 698.51,-468.3 695.98,-443.98"/>
<polygon fill="black" stroke="black" points="699.47,-443.69 694.95,-434.11 692.5,-444.42 699.47,-443.69"/>
<text text-anchor="middle" x="715.53" y="-473.6" font-family="Times,serif" font-size="14.00">View</text>
<polyline fill="none" stroke="black" points="730.69,-469.4 700.36,-469.4 699.65,-479.24"/>
</g>
<!-- DeliveryDetail&#45;&gt;MyDeliveries -->
<g id="edge47" class="edge">
<title>DeliveryDetail-&gt;MyDeliveries</title>
<path fill="none" stroke="black" stroke-dasharray="1,5" d="M679.49,-432.71C670.06,-446.95 660.17,-467.72 666.23,-486.2 669.51,-496.17 675.4,-505.8 681.67,-514.11"/>
<polygon fill="black" stroke="black" points="678.81,-516.14 687.83,-521.7 684.24,-511.73 678.81,-516.14"/>
<text text-anchor="middle" x="680.62" y="-473.6" font-family="Times,serif" font-size="14.00">Back</text>
<polyline fill="none" stroke="black" points="695,-469.4 666.23,-469.4 666.25,-486.26"/>
</g>
<!-- Profile_H&#45;&gt;ChefDashboard -->
<g id="edge51" class="edge">
<title>Profile_H-&gt;ChefDashboard</title>
<path fill="none" stroke="black" stroke-dasharray="1,5" d="M1120.28,-559.7C1119.05,-574.61 1115.75,-596.23 1107,-613 1101.4,-623.73 1093.01,-633.79 1084.59,-642.25"/>
<polygon fill="black" stroke="black" points="1082.21,-639.69 1077.36,-649.11 1087.03,-644.76 1082.21,-639.69"/>
<text text-anchor="middle" x="1127.9" y="-600.4" font-family="Times,serif" font-size="14.00">Back</text>
<polyline fill="none" stroke="black" points="1142.29,-596.2 1113.52,-596.2 1112.74,-599.26"/>
</g>
<!-- EditProfile_H -->
<g id="node29" class="node">
<title>EditProfile_H</title>
<polygon fill="white" stroke="black" points="1189.85,-432.4 1106.15,-432.4 1106.15,-396.4 1189.85,-396.4 1189.85,-432.4"/>
<text text-anchor="middle" x="1148" y="-410.2" font-family="Arial" font-size="14.00">Edit Profile</text>
</g>
<!-- Profile_H&#45;&gt;EditProfile_H -->
<g id="edge49" class="edge">
<title>Profile_H-&gt;EditProfile_H</title>
<path fill="none" stroke="black" d="M1148.05,-522.78C1159.91,-513.51 1172.58,-500.96 1179,-486.2 1185.38,-471.55 1179.11,-455.21 1170.59,-441.92"/>
<polygon fill="black" stroke="black" points="1173.66,-440.2 1165.01,-434.08 1167.96,-444.26 1173.66,-440.2"/>
<text text-anchor="middle" x="1193.28" y="-473.6" font-family="Times,serif" font-size="14.00">Edit</text>
<polyline fill="none" stroke="black" points="1204.94,-469.4 1181.61,-469.4 1181.45,-476.75"/>
</g>
<!-- EditProfile_H&#45;&gt;Profile_H -->
<g id="edge50" class="edge">
<title>EditProfile_H-&gt;Profile_H</title>
<path fill="none" stroke="black" stroke-dasharray="1,5" d="M1129.41,-432.48C1120.16,-442.27 1109.93,-455.37 1105.03,-469.4 1100.19,-483.25 1103.05,-499.14 1107.62,-512.36"/>
<polygon fill="black" stroke="black" points="1104.23,-513.3 1111.16,-521.32 1110.74,-510.73 1104.23,-513.3"/>
<text text-anchor="middle" x="1140.01" y="-473.6" font-family="Times,serif" font-size="14.00">Save/Cancel</text>
<polyline fill="none" stroke="black" points="1175,-469.4 1105.03,-469.4 1105.01,-469.44"/>
</g>
<!-- StatsDashboard&#45;&gt;MainMenu -->
<g id="edge62" class="edge">
<title>StatsDashboard-&gt;MainMenu</title>
<path fill="none" stroke="black" stroke-dasharray="1,5" d="M1667.5,-686.22C1661.75,-696.46 1656,-709.96 1656,-723 1656,-867.4 1656,-867.4 1656,-867.4 1656,-919.81 1287.63,-929.49 1129.61,-931.24"/>
<polygon fill="black" stroke="black" points="1129.63,-927.74 1119.66,-931.34 1129.7,-934.74 1129.63,-927.74"/>
<text text-anchor="middle" x="1673.11" y="-774.8" font-family="Times,serif" font-size="14.00">Home</text>
<polyline fill="none" stroke="black" points="1690.21,-770.6 1656,-770.6 1656,-778.84"/>
</g>
<!-- StatsOrdersByChef -->
<g id="node31" class="node">
<title>StatsOrdersByChef</title>
<polygon fill="white" stroke="black" points="1746.46,-559.2 1635.54,-559.2 1635.54,-523.2 1746.46,-523.2 1746.46,-559.2"/>
<text text-anchor="middle" x="1691" y="-537" font-family="Arial" font-size="14.00">Orders by Chef</text>
</g>
<!-- StatsDashboard&#45;&gt;StatsOrdersByChef -->
<g id="edge54" class="edge">
<title>StatsDashboard-&gt;StatsOrdersByChef</title>
<path fill="none" stroke="black" d="M1633.58,-651.63C1605.17,-639.31 1576.45,-620.15 1590.75,-596.2 1598.79,-582.75 1611.46,-572.45 1625.12,-564.64"/>
<polygon fill="black" stroke="black" points="1626.6,-567.81 1633.85,-560.09 1623.37,-561.61 1626.6,-567.81"/>
<text text-anchor="middle" x="1634.88" y="-600.4" font-family="Times,serif" font-size="14.00">Chef Deliveries</text>
<polyline fill="none" stroke="black" points="1679,-596.2 1590.75,-596.2 1610.94,-574.05"/>
</g>
<!-- StatsRevenue -->
<g id="node32" class="node">
<title>StatsRevenue</title>
<polygon fill="white" stroke="black" points="1559.98,-559.2 1428.02,-559.2 1428.02,-523.2 1559.98,-523.2 1559.98,-559.2"/>
<text text-anchor="middle" x="1494" y="-537" font-family="Arial" font-size="14.00">Revenue by Street</text>
</g>
<!-- StatsDashboard&#45;&gt;StatsRevenue -->
<g id="edge55" class="edge">
<title>StatsDashboard-&gt;StatsRevenue</title>
<path fill="none" stroke="black" d="M1592.11,-658.95C1531.86,-651.31 1459.3,-637.29 1441.02,-613 1429.49,-597.68 1441.82,-580.46 1457.47,-566.84"/>
<polygon fill="black" stroke="black" points="1459.59,-569.62 1465.19,-560.63 1455.21,-564.17 1459.59,-569.62"/>
<text text-anchor="middle" x="1465.51" y="-600.4" font-family="Times,serif" font-size="14.00">Revenue</text>
<polyline fill="none" stroke="black" points="1490,-596.2 1441.02,-596.2 1441,-612.98"/>
</g>
<!-- StatsAverages -->
<g id="node33" class="node">
<title>StatsAverages</title>
<polygon fill="white" stroke="black" points="2078.8,-559.2 1935.2,-559.2 1935.2,-523.2 2078.8,-523.2 2078.8,-559.2"/>
<text text-anchor="middle" x="2007" y="-537" font-family="Arial" font-size="14.00">Average Order Price</text>
</g>
<!-- StatsDashboard&#45;&gt;StatsAverages -->
<g id="edge56" class="edge">
<title>StatsDashboard-&gt;StatsAverages</title>
<path fill="none" stroke="black" d="M1752.6,-655.63C1794.56,-647.37 1847.31,-633.89 1891,-613 1919.55,-599.34 1950.03,-580.56 1972.58,-565.77"/>
<polygon fill="black" stroke="black" points="1974.38,-568.78 1980.78,-560.33 1970.51,-562.94 1974.38,-568.78"/>
<text text-anchor="middle" x="1970.18" y="-600.4" font-family="Times,serif" font-size="14.00">Avg. Order Price</text>
<polyline fill="none" stroke="black" points="2018.19,-596.2 1922.17,-596.2 1954.49,-577.37"/>
</g>
<!-- StatsCuisine -->
<g id="node34" class="node">
<title>StatsCuisine</title>
<polygon fill="white" stroke="black" points="1893.85,-559.2 1796.15,-559.2 1796.15,-523.2 1893.85,-523.2 1893.85,-559.2"/>
<text text-anchor="middle" x="1845" y="-537" font-family="Arial" font-size="14.00">Top Cuisines</text>
</g>
<!-- StatsDashboard&#45;&gt;StatsCuisine -->
<g id="edge57" class="edge">
<title>StatsDashboard-&gt;StatsCuisine</title>
<path fill="none" stroke="black" d="M1701.39,-650.17C1730.06,-628.61 1779.96,-591.1 1812.73,-566.46"/>
<polygon fill="black" stroke="black" points="1814.8,-569.28 1820.69,-560.47 1810.6,-563.69 1814.8,-569.28"/>
<text text-anchor="middle" x="1810.56" y="-600.4" font-family="Times,serif" font-size="14.00">Cuisine Prefs</text>
<polyline fill="none" stroke="black" points="1848.09,-596.2 1773.04,-596.2 1793.19,-581.15"/>
</g>
<!-- StatsOrdersByChef&#45;&gt;StatsDashboard -->
<g id="edge58" class="edge">
<title>StatsOrdersByChef-&gt;StatsDashboard</title>
<path fill="none" stroke="black" stroke-dasharray="1,5" d="M1689.35,-559.41C1687.39,-579.74 1684.11,-613.87 1681.76,-638.24"/>
<polygon fill="black" stroke="black" points="1678.29,-637.85 1680.81,-648.14 1685.25,-638.52 1678.29,-637.85"/>
<text text-anchor="middle" x="1700.18" y="-600.4" font-family="Times,serif" font-size="14.00">Back</text>
<polyline fill="none" stroke="black" points="1714.56,-596.2 1685.8,-596.2 1685.13,-603.29"/>
</g>
<!-- StatsRevenue&#45;&gt;StatsDashboard -->
<g id="edge59" class="edge">
<title>StatsRevenue-&gt;StatsDashboard</title>
<path fill="none" stroke="black" stroke-dasharray="1,5" d="M1505.44,-559.49C1516.45,-575.08 1534.34,-597.84 1554.23,-613 1573.6,-627.75 1597.61,-639.38 1619.38,-648.01"/>
<polygon fill="black" stroke="black" points="1617.85,-651.17 1628.44,-651.46 1620.34,-644.63 1617.85,-651.17"/>
<text text-anchor="middle" x="1568.62" y="-600.4" font-family="Times,serif" font-size="14.00">Back</text>
<polyline fill="none" stroke="black" points="1583,-596.2 1554.23,-596.2 1559.8,-617.07"/>
</g>
<!-- StatsAverages&#45;&gt;StatsDashboard -->
<g id="edge60" class="edge">
<title>StatsAverages-&gt;StatsDashboard</title>
<path fill="none" stroke="black" stroke-dasharray="1,5" d="M2018.07,-559.65C2026.49,-575.36 2034.65,-598.2 2022,-613 1992.35,-647.68 1877.85,-660.23 1789.21,-664.69"/>
<polygon fill="black" stroke="black" points="1789.04,-661.19 1779.22,-665.16 1789.37,-668.19 1789.04,-661.19"/>
<text text-anchor="middle" x="2042.85" y="-600.4" font-family="Times,serif" font-size="14.00">Back</text>
<polyline fill="none" stroke="black" points="2057.23,-596.2 2028.47,-596.2 2027.73,-601.46"/>
</g>
<!-- StatsCuisine&#45;&gt;StatsDashboard -->
<g id="edge61" class="edge">
<title>StatsCuisine-&gt;StatsDashboard</title>
<path fill="none" stroke="black" stroke-dasharray="1,5" d="M1852.82,-559.66C1858.45,-575.17 1863.27,-597.68 1852,-613 1834.97,-636.16 1808.05,-649.67 1780.48,-657.46"/>
<polygon fill="black" stroke="black" points="1779.78,-654.03 1770.96,-659.9 1781.51,-660.81 1779.78,-654.03"/>
<text text-anchor="middle" x="1872.71" y="-600.4" font-family="Times,serif" font-size="14.00">Back</text>
<polyline fill="none" stroke="black" points="1887.09,-596.2 1858.33,-596.2 1857.57,-600.8"/>
</g>
</g>
</svg>